<?xml version="1.0" encoding="utf-8" standalone="no"?>
<!DOCTYPE svg PUBLIC "-//W3C//DTD SVG 1.1//EN"
  "http://www.w3.org/Graphics/SVG/1.1/DTD/svg11.dtd">
<svg xmlns:xlink="http://www.w3.org/1999/xlink" width="1440pt" height="720pt" viewBox="0 0 1440 720" xmlns="http://www.w3.org/2000/svg" version="1.1">
 <metadata>
  <rdf:RDF xmlns:dc="http://purl.org/dc/elements/1.1/" xmlns:cc="http://creativecommons.org/ns#" xmlns:rdf="http://www.w3.org/1999/02/22-rdf-syntax-ns#">
   <cc:Work>
    <dc:type rdf:resource="http://purl.org/dc/dcmitype/StillImage"/>
    <dc:date>2023-02-09T08:46:33.584553</dc:date>
    <dc:format>image/svg+xml</dc:format>
    <dc:creator>
     <cc:Agent>
      <dc:title>Matplotlib v3.5.2, https://matplotlib.org/</dc:title>
     </cc:Agent>
    </dc:creator>
   </cc:Work>
  </rdf:RDF>
 </metadata>
 <defs>
  <style type="text/css">*{stroke-linejoin: round; stroke-linecap: butt}</style>
 </defs>
 <g id="figure_1">
  <g id="patch_1">
   <path d="M 0 720 
L 1440 720 
L 1440 0 
L 0 0 
z
" style="fill: #ffffff"/>
  </g>
  <g id="axes_1">
   <g id="patch_2">
    <path d="M 180 640.8 
L 1296 640.8 
L 1296 86.4 
L 180 86.4 
z
" style="fill: #778899"/>
   </g>
   <g id="matplotlib.axis_1">
    <g id="xtick_1">
     <g id="line2d_1">
      <defs>
       <path id="mc6dd39fa3a" d="M 0 0 
L 0 3.5 
" style="stroke: #000000; stroke-width: 0.8"/>
      </defs>
      <g>
       <use xlink:href="#mc6dd39fa3a" x="237.091243" y="640.8" style="stroke: #000000; stroke-width: 0.8"/>
      </g>
     </g>
     <g id="text_1">
      <!-- 1958-01 -->
      <g transform="translate(216.199837 655.398438)scale(0.1 -0.1)">
       <defs>
        <path id="DejaVuSans-31" d="M 794 531 
L 1825 531 
L 1825 4091 
L 703 3866 
L 703 4441 
L 1819 4666 
L 2450 4666 
L 2450 531 
L 3481 531 
L 3481 0 
L 794 0 
L 794 531 
z
" transform="scale(0.015625)"/>
        <path id="DejaVuSans-39" d="M 703 97 
L 703 672 
Q 941 559 1184 500 
Q 1428 441 1663 441 
Q 2288 441 2617 861 
Q 2947 1281 2994 2138 
Q 2813 1869 2534 1725 
Q 2256 1581 1919 1581 
Q 1219 1581 811 2004 
Q 403 2428 403 3163 
Q 403 3881 828 4315 
Q 1253 4750 1959 4750 
Q 2769 4750 3195 4129 
Q 3622 3509 3622 2328 
Q 3622 1225 3098 567 
Q 2575 -91 1691 -91 
Q 1453 -91 1209 -44 
Q 966 3 703 97 
z
M 1959 2075 
Q 2384 2075 2632 2365 
Q 2881 2656 2881 3163 
Q 2881 3666 2632 3958 
Q 2384 4250 1959 4250 
Q 1534 4250 1286 3958 
Q 1038 3666 1038 3163 
Q 1038 2656 1286 2365 
Q 1534 2075 1959 2075 
z
" transform="scale(0.015625)"/>
        <path id="DejaVuSans-35" d="M 691 4666 
L 3169 4666 
L 3169 4134 
L 1269 4134 
L 1269 2991 
Q 1406 3038 1543 3061 
Q 1681 3084 1819 3084 
Q 2600 3084 3056 2656 
Q 3513 2228 3513 1497 
Q 3513 744 3044 326 
Q 2575 -91 1722 -91 
Q 1428 -91 1123 -41 
Q 819 9 494 109 
L 494 744 
Q 775 591 1075 516 
Q 1375 441 1709 441 
Q 2250 441 2565 725 
Q 2881 1009 2881 1497 
Q 2881 1984 2565 2268 
Q 2250 2553 1709 2553 
Q 1456 2553 1204 2497 
Q 953 2441 691 2322 
L 691 4666 
z
" transform="scale(0.015625)"/>
        <path id="DejaVuSans-38" d="M 2034 2216 
Q 1584 2216 1326 1975 
Q 1069 1734 1069 1313 
Q 1069 891 1326 650 
Q 1584 409 2034 409 
Q 2484 409 2743 651 
Q 3003 894 3003 1313 
Q 3003 1734 2745 1975 
Q 2488 2216 2034 2216 
z
M 1403 2484 
Q 997 2584 770 2862 
Q 544 3141 544 3541 
Q 544 4100 942 4425 
Q 1341 4750 2034 4750 
Q 2731 4750 3128 4425 
Q 3525 4100 3525 3541 
Q 3525 3141 3298 2862 
Q 3072 2584 2669 2484 
Q 3125 2378 3379 2068 
Q 3634 1759 3634 1313 
Q 3634 634 3220 271 
Q 2806 -91 2034 -91 
Q 1263 -91 848 271 
Q 434 634 434 1313 
Q 434 1759 690 2068 
Q 947 2378 1403 2484 
z
M 1172 3481 
Q 1172 3119 1398 2916 
Q 1625 2713 2034 2713 
Q 2441 2713 2670 2916 
Q 2900 3119 2900 3481 
Q 2900 3844 2670 4047 
Q 2441 4250 2034 4250 
Q 1625 4250 1398 4047 
Q 1172 3844 1172 3481 
z
" transform="scale(0.015625)"/>
        <path id="DejaVuSans-2d" d="M 313 2009 
L 1997 2009 
L 1997 1497 
L 313 1497 
L 313 2009 
z
" transform="scale(0.015625)"/>
        <path id="DejaVuSans-30" d="M 2034 4250 
Q 1547 4250 1301 3770 
Q 1056 3291 1056 2328 
Q 1056 1369 1301 889 
Q 1547 409 2034 409 
Q 2525 409 2770 889 
Q 3016 1369 3016 2328 
Q 3016 3291 2770 3770 
Q 2525 4250 2034 4250 
z
M 2034 4750 
Q 2819 4750 3233 4129 
Q 3647 3509 3647 2328 
Q 3647 1150 3233 529 
Q 2819 -91 2034 -91 
Q 1250 -91 836 529 
Q 422 1150 422 2328 
Q 422 3509 836 4129 
Q 1250 4750 2034 4750 
z
" transform="scale(0.015625)"/>
       </defs>
       <use xlink:href="#DejaVuSans-31"/>
       <use xlink:href="#DejaVuSans-39" x="63.623047"/>
       <use xlink:href="#DejaVuSans-35" x="127.246094"/>
       <use xlink:href="#DejaVuSans-38" x="190.869141"/>
       <use xlink:href="#DejaVuSans-2d" x="254.492188"/>
       <use xlink:href="#DejaVuSans-30" x="290.576172"/>
       <use xlink:href="#DejaVuSans-31" x="354.199219"/>
      </g>
     </g>
    </g>
    <g id="xtick_2">
     <g id="line2d_2">
      <g>
       <use xlink:href="#mc6dd39fa3a" x="334.815395" y="640.8" style="stroke: #000000; stroke-width: 0.8"/>
      </g>
     </g>
     <g id="text_2">
      <!-- 1964-01 -->
      <g transform="translate(313.923989 655.398438)scale(0.1 -0.1)">
       <defs>
        <path id="DejaVuSans-36" d="M 2113 2584 
Q 1688 2584 1439 2293 
Q 1191 2003 1191 1497 
Q 1191 994 1439 701 
Q 1688 409 2113 409 
Q 2538 409 2786 701 
Q 3034 994 3034 1497 
Q 3034 2003 2786 2293 
Q 2538 2584 2113 2584 
z
M 3366 4563 
L 3366 3988 
Q 3128 4100 2886 4159 
Q 2644 4219 2406 4219 
Q 1781 4219 1451 3797 
Q 1122 3375 1075 2522 
Q 1259 2794 1537 2939 
Q 1816 3084 2150 3084 
Q 2853 3084 3261 2657 
Q 3669 2231 3669 1497 
Q 3669 778 3244 343 
Q 2819 -91 2113 -91 
Q 1303 -91 875 529 
Q 447 1150 447 2328 
Q 447 3434 972 4092 
Q 1497 4750 2381 4750 
Q 2619 4750 2861 4703 
Q 3103 4656 3366 4563 
z
" transform="scale(0.015625)"/>
        <path id="DejaVuSans-34" d="M 2419 4116 
L 825 1625 
L 2419 1625 
L 2419 4116 
z
M 2253 4666 
L 3047 4666 
L 3047 1625 
L 3713 1625 
L 3713 1100 
L 3047 1100 
L 3047 0 
L 2419 0 
L 2419 1100 
L 313 1100 
L 313 1709 
L 2253 4666 
z
" transform="scale(0.015625)"/>
       </defs>
       <use xlink:href="#DejaVuSans-31"/>
       <use xlink:href="#DejaVuSans-39" x="63.623047"/>
       <use xlink:href="#DejaVuSans-36" x="127.246094"/>
       <use xlink:href="#DejaVuSans-34" x="190.869141"/>
       <use xlink:href="#DejaVuSans-2d" x="254.492188"/>
       <use xlink:href="#DejaVuSans-30" x="290.576172"/>
       <use xlink:href="#DejaVuSans-31" x="354.199219"/>
      </g>
     </g>
    </g>
    <g id="xtick_3">
     <g id="line2d_3">
      <g>
       <use xlink:href="#mc6dd39fa3a" x="432.584149" y="640.8" style="stroke: #000000; stroke-width: 0.8"/>
      </g>
     </g>
     <g id="text_3">
      <!-- 1970-01 -->
      <g transform="translate(411.692743 655.398438)scale(0.1 -0.1)">
       <defs>
        <path id="DejaVuSans-37" d="M 525 4666 
L 3525 4666 
L 3525 4397 
L 1831 0 
L 1172 0 
L 2766 4134 
L 525 4134 
L 525 4666 
z
" transform="scale(0.015625)"/>
       </defs>
       <use xlink:href="#DejaVuSans-31"/>
       <use xlink:href="#DejaVuSans-39" x="63.623047"/>
       <use xlink:href="#DejaVuSans-37" x="127.246094"/>
       <use xlink:href="#DejaVuSans-30" x="190.869141"/>
       <use xlink:href="#DejaVuSans-2d" x="254.492188"/>
       <use xlink:href="#DejaVuSans-30" x="290.576172"/>
       <use xlink:href="#DejaVuSans-31" x="354.199219"/>
      </g>
     </g>
    </g>
    <g id="xtick_4">
     <g id="line2d_4">
      <g>
       <use xlink:href="#mc6dd39fa3a" x="530.308301" y="640.8" style="stroke: #000000; stroke-width: 0.8"/>
      </g>
     </g>
     <g id="text_4">
      <!-- 1976-01 -->
      <g transform="translate(509.416895 655.398438)scale(0.1 -0.1)">
       <use xlink:href="#DejaVuSans-31"/>
       <use xlink:href="#DejaVuSans-39" x="63.623047"/>
       <use xlink:href="#DejaVuSans-37" x="127.246094"/>
       <use xlink:href="#DejaVuSans-36" x="190.869141"/>
       <use xlink:href="#DejaVuSans-2d" x="254.492188"/>
       <use xlink:href="#DejaVuSans-30" x="290.576172"/>
       <use xlink:href="#DejaVuSans-31" x="354.199219"/>
      </g>
     </g>
    </g>
    <g id="xtick_5">
     <g id="line2d_5">
      <g>
       <use xlink:href="#mc6dd39fa3a" x="628.077055" y="640.8" style="stroke: #000000; stroke-width: 0.8"/>
      </g>
     </g>
     <g id="text_5">
      <!-- 1982-01 -->
      <g transform="translate(607.185649 655.398438)scale(0.1 -0.1)">
       <defs>
        <path id="DejaVuSans-32" d="M 1228 531 
L 3431 531 
L 3431 0 
L 469 0 
L 469 531 
Q 828 903 1448 1529 
Q 2069 2156 2228 2338 
Q 2531 2678 2651 2914 
Q 2772 3150 2772 3378 
Q 2772 3750 2511 3984 
Q 2250 4219 1831 4219 
Q 1534 4219 1204 4116 
Q 875 4013 500 3803 
L 500 4441 
Q 881 4594 1212 4672 
Q 1544 4750 1819 4750 
Q 2544 4750 2975 4387 
Q 3406 4025 3406 3419 
Q 3406 3131 3298 2873 
Q 3191 2616 2906 2266 
Q 2828 2175 2409 1742 
Q 1991 1309 1228 531 
z
" transform="scale(0.015625)"/>
       </defs>
       <use xlink:href="#DejaVuSans-31"/>
       <use xlink:href="#DejaVuSans-39" x="63.623047"/>
       <use xlink:href="#DejaVuSans-38" x="127.246094"/>
       <use xlink:href="#DejaVuSans-32" x="190.869141"/>
       <use xlink:href="#DejaVuSans-2d" x="254.492188"/>
       <use xlink:href="#DejaVuSans-30" x="290.576172"/>
       <use xlink:href="#DejaVuSans-31" x="354.199219"/>
      </g>
     </g>
    </g>
    <g id="xtick_6">
     <g id="line2d_6">
      <g>
       <use xlink:href="#mc6dd39fa3a" x="725.801207" y="640.8" style="stroke: #000000; stroke-width: 0.8"/>
      </g>
     </g>
     <g id="text_6">
      <!-- 1988-01 -->
      <g transform="translate(704.909801 655.398438)scale(0.1 -0.1)">
       <use xlink:href="#DejaVuSans-31"/>
       <use xlink:href="#DejaVuSans-39" x="63.623047"/>
       <use xlink:href="#DejaVuSans-38" x="127.246094"/>
       <use xlink:href="#DejaVuSans-38" x="190.869141"/>
       <use xlink:href="#DejaVuSans-2d" x="254.492188"/>
       <use xlink:href="#DejaVuSans-30" x="290.576172"/>
       <use xlink:href="#DejaVuSans-31" x="354.199219"/>
      </g>
     </g>
    </g>
    <g id="xtick_7">
     <g id="line2d_7">
      <g>
       <use xlink:href="#mc6dd39fa3a" x="823.569961" y="640.8" style="stroke: #000000; stroke-width: 0.8"/>
      </g>
     </g>
     <g id="text_7">
      <!-- 1994-01 -->
      <g transform="translate(802.678555 655.398438)scale(0.1 -0.1)">
       <use xlink:href="#DejaVuSans-31"/>
       <use xlink:href="#DejaVuSans-39" x="63.623047"/>
       <use xlink:href="#DejaVuSans-39" x="127.246094"/>
       <use xlink:href="#DejaVuSans-34" x="190.869141"/>
       <use xlink:href="#DejaVuSans-2d" x="254.492188"/>
       <use xlink:href="#DejaVuSans-30" x="290.576172"/>
       <use xlink:href="#DejaVuSans-31" x="354.199219"/>
      </g>
     </g>
    </g>
    <g id="xtick_8">
     <g id="line2d_8">
      <g>
       <use xlink:href="#mc6dd39fa3a" x="921.294113" y="640.8" style="stroke: #000000; stroke-width: 0.8"/>
      </g>
     </g>
     <g id="text_8">
      <!-- 2000-01 -->
      <g transform="translate(900.402707 655.398438)scale(0.1 -0.1)">
       <use xlink:href="#DejaVuSans-32"/>
       <use xlink:href="#DejaVuSans-30" x="63.623047"/>
       <use xlink:href="#DejaVuSans-30" x="127.246094"/>
       <use xlink:href="#DejaVuSans-30" x="190.869141"/>
       <use xlink:href="#DejaVuSans-2d" x="254.492188"/>
       <use xlink:href="#DejaVuSans-30" x="290.576172"/>
       <use xlink:href="#DejaVuSans-31" x="354.199219"/>
      </g>
     </g>
    </g>
    <g id="xtick_9">
     <g id="line2d_9">
      <g>
       <use xlink:href="#mc6dd39fa3a" x="1019.062867" y="640.8" style="stroke: #000000; stroke-width: 0.8"/>
      </g>
     </g>
     <g id="text_9">
      <!-- 2006-01 -->
      <g transform="translate(998.171461 655.398438)scale(0.1 -0.1)">
       <use xlink:href="#DejaVuSans-32"/>
       <use xlink:href="#DejaVuSans-30" x="63.623047"/>
       <use xlink:href="#DejaVuSans-30" x="127.246094"/>
       <use xlink:href="#DejaVuSans-36" x="190.869141"/>
       <use xlink:href="#DejaVuSans-2d" x="254.492188"/>
       <use xlink:href="#DejaVuSans-30" x="290.576172"/>
       <use xlink:href="#DejaVuSans-31" x="354.199219"/>
      </g>
     </g>
    </g>
    <g id="xtick_10">
     <g id="line2d_10">
      <g>
       <use xlink:href="#mc6dd39fa3a" x="1116.787019" y="640.8" style="stroke: #000000; stroke-width: 0.8"/>
      </g>
     </g>
     <g id="text_10">
      <!-- 2012-01 -->
      <g transform="translate(1095.895613 655.398438)scale(0.1 -0.1)">
       <use xlink:href="#DejaVuSans-32"/>
       <use xlink:href="#DejaVuSans-30" x="63.623047"/>
       <use xlink:href="#DejaVuSans-31" x="127.246094"/>
       <use xlink:href="#DejaVuSans-32" x="190.869141"/>
       <use xlink:href="#DejaVuSans-2d" x="254.492188"/>
       <use xlink:href="#DejaVuSans-30" x="290.576172"/>
       <use xlink:href="#DejaVuSans-31" x="354.199219"/>
      </g>
     </g>
    </g>
    <g id="xtick_11">
     <g id="line2d_11">
      <g>
       <use xlink:href="#mc6dd39fa3a" x="1214.555773" y="640.8" style="stroke: #000000; stroke-width: 0.8"/>
      </g>
     </g>
     <g id="text_11">
      <!-- 2018-01 -->
      <g transform="translate(1193.664367 655.398438)scale(0.1 -0.1)">
       <use xlink:href="#DejaVuSans-32"/>
       <use xlink:href="#DejaVuSans-30" x="63.623047"/>
       <use xlink:href="#DejaVuSans-31" x="127.246094"/>
       <use xlink:href="#DejaVuSans-38" x="190.869141"/>
       <use xlink:href="#DejaVuSans-2d" x="254.492188"/>
       <use xlink:href="#DejaVuSans-30" x="290.576172"/>
       <use xlink:href="#DejaVuSans-31" x="354.199219"/>
      </g>
     </g>
    </g>
    <g id="text_12">
     <!-- Date by Month -->
     <g transform="translate(701.066406 669.076563)scale(0.1 -0.1)">
      <defs>
       <path id="DejaVuSans-44" d="M 1259 4147 
L 1259 519 
L 2022 519 
Q 2988 519 3436 956 
Q 3884 1394 3884 2338 
Q 3884 3275 3436 3711 
Q 2988 4147 2022 4147 
L 1259 4147 
z
M 628 4666 
L 1925 4666 
Q 3281 4666 3915 4102 
Q 4550 3538 4550 2338 
Q 4550 1131 3912 565 
Q 3275 0 1925 0 
L 628 0 
L 628 4666 
z
" transform="scale(0.015625)"/>
       <path id="DejaVuSans-61" d="M 2194 1759 
Q 1497 1759 1228 1600 
Q 959 1441 959 1056 
Q 959 750 1161 570 
Q 1363 391 1709 391 
Q 2188 391 2477 730 
Q 2766 1069 2766 1631 
L 2766 1759 
L 2194 1759 
z
M 3341 1997 
L 3341 0 
L 2766 0 
L 2766 531 
Q 2569 213 2275 61 
Q 1981 -91 1556 -91 
Q 1019 -91 701 211 
Q 384 513 384 1019 
Q 384 1609 779 1909 
Q 1175 2209 1959 2209 
L 2766 2209 
L 2766 2266 
Q 2766 2663 2505 2880 
Q 2244 3097 1772 3097 
Q 1472 3097 1187 3025 
Q 903 2953 641 2809 
L 641 3341 
Q 956 3463 1253 3523 
Q 1550 3584 1831 3584 
Q 2591 3584 2966 3190 
Q 3341 2797 3341 1997 
z
" transform="scale(0.015625)"/>
       <path id="DejaVuSans-74" d="M 1172 4494 
L 1172 3500 
L 2356 3500 
L 2356 3053 
L 1172 3053 
L 1172 1153 
Q 1172 725 1289 603 
Q 1406 481 1766 481 
L 2356 481 
L 2356 0 
L 1766 0 
Q 1100 0 847 248 
Q 594 497 594 1153 
L 594 3053 
L 172 3053 
L 172 3500 
L 594 3500 
L 594 4494 
L 1172 4494 
z
" transform="scale(0.015625)"/>
       <path id="DejaVuSans-65" d="M 3597 1894 
L 3597 1613 
L 953 1613 
Q 991 1019 1311 708 
Q 1631 397 2203 397 
Q 2534 397 2845 478 
Q 3156 559 3463 722 
L 3463 178 
Q 3153 47 2828 -22 
Q 2503 -91 2169 -91 
Q 1331 -91 842 396 
Q 353 884 353 1716 
Q 353 2575 817 3079 
Q 1281 3584 2069 3584 
Q 2775 3584 3186 3129 
Q 3597 2675 3597 1894 
z
M 3022 2063 
Q 3016 2534 2758 2815 
Q 2500 3097 2075 3097 
Q 1594 3097 1305 2825 
Q 1016 2553 972 2059 
L 3022 2063 
z
" transform="scale(0.015625)"/>
       <path id="DejaVuSans-20" transform="scale(0.015625)"/>
       <path id="DejaVuSans-62" d="M 3116 1747 
Q 3116 2381 2855 2742 
Q 2594 3103 2138 3103 
Q 1681 3103 1420 2742 
Q 1159 2381 1159 1747 
Q 1159 1113 1420 752 
Q 1681 391 2138 391 
Q 2594 391 2855 752 
Q 3116 1113 3116 1747 
z
M 1159 2969 
Q 1341 3281 1617 3432 
Q 1894 3584 2278 3584 
Q 2916 3584 3314 3078 
Q 3713 2572 3713 1747 
Q 3713 922 3314 415 
Q 2916 -91 2278 -91 
Q 1894 -91 1617 61 
Q 1341 213 1159 525 
L 1159 0 
L 581 0 
L 581 4863 
L 1159 4863 
L 1159 2969 
z
" transform="scale(0.015625)"/>
       <path id="DejaVuSans-79" d="M 2059 -325 
Q 1816 -950 1584 -1140 
Q 1353 -1331 966 -1331 
L 506 -1331 
L 506 -850 
L 844 -850 
Q 1081 -850 1212 -737 
Q 1344 -625 1503 -206 
L 1606 56 
L 191 3500 
L 800 3500 
L 1894 763 
L 2988 3500 
L 3597 3500 
L 2059 -325 
z
" transform="scale(0.015625)"/>
       <path id="DejaVuSans-4d" d="M 628 4666 
L 1569 4666 
L 2759 1491 
L 3956 4666 
L 4897 4666 
L 4897 0 
L 4281 0 
L 4281 4097 
L 3078 897 
L 2444 897 
L 1241 4097 
L 1241 0 
L 628 0 
L 628 4666 
z
" transform="scale(0.015625)"/>
       <path id="DejaVuSans-6f" d="M 1959 3097 
Q 1497 3097 1228 2736 
Q 959 2375 959 1747 
Q 959 1119 1226 758 
Q 1494 397 1959 397 
Q 2419 397 2687 759 
Q 2956 1122 2956 1747 
Q 2956 2369 2687 2733 
Q 2419 3097 1959 3097 
z
M 1959 3584 
Q 2709 3584 3137 3096 
Q 3566 2609 3566 1747 
Q 3566 888 3137 398 
Q 2709 -91 1959 -91 
Q 1206 -91 779 398 
Q 353 888 353 1747 
Q 353 2609 779 3096 
Q 1206 3584 1959 3584 
z
" transform="scale(0.015625)"/>
       <path id="DejaVuSans-6e" d="M 3513 2113 
L 3513 0 
L 2938 0 
L 2938 2094 
Q 2938 2591 2744 2837 
Q 2550 3084 2163 3084 
Q 1697 3084 1428 2787 
Q 1159 2491 1159 1978 
L 1159 0 
L 581 0 
L 581 3500 
L 1159 3500 
L 1159 2956 
Q 1366 3272 1645 3428 
Q 1925 3584 2291 3584 
Q 2894 3584 3203 3211 
Q 3513 2838 3513 2113 
z
" transform="scale(0.015625)"/>
       <path id="DejaVuSans-68" d="M 3513 2113 
L 3513 0 
L 2938 0 
L 2938 2094 
Q 2938 2591 2744 2837 
Q 2550 3084 2163 3084 
Q 1697 3084 1428 2787 
Q 1159 2491 1159 1978 
L 1159 0 
L 581 0 
L 581 4863 
L 1159 4863 
L 1159 2956 
Q 1366 3272 1645 3428 
Q 1925 3584 2291 3584 
Q 2894 3584 3203 3211 
Q 3513 2838 3513 2113 
z
" transform="scale(0.015625)"/>
      </defs>
      <use xlink:href="#DejaVuSans-44"/>
      <use xlink:href="#DejaVuSans-61" x="77.001953"/>
      <use xlink:href="#DejaVuSans-74" x="138.28125"/>
      <use xlink:href="#DejaVuSans-65" x="177.490234"/>
      <use xlink:href="#DejaVuSans-20" x="239.013672"/>
      <use xlink:href="#DejaVuSans-62" x="270.800781"/>
      <use xlink:href="#DejaVuSans-79" x="334.277344"/>
      <use xlink:href="#DejaVuSans-20" x="393.457031"/>
      <use xlink:href="#DejaVuSans-4d" x="425.244141"/>
      <use xlink:href="#DejaVuSans-6f" x="511.523438"/>
      <use xlink:href="#DejaVuSans-6e" x="572.705078"/>
      <use xlink:href="#DejaVuSans-74" x="636.083984"/>
      <use xlink:href="#DejaVuSans-68" x="675.292969"/>
     </g>
    </g>
   </g>
   <g id="matplotlib.axis_2">
    <g id="ytick_1">
     <g id="line2d_12">
      <defs>
       <path id="me28f96ead1" d="M 0 0 
L -3.5 0 
" style="stroke: #000000; stroke-width: 0.8"/>
      </defs>
      <g>
       <use xlink:href="#me28f96ead1" x="180" y="616.922835" style="stroke: #000000; stroke-width: 0.8"/>
      </g>
     </g>
     <g id="text_13">
      <!-- 0.0 -->
      <g transform="translate(157.096875 620.722053)scale(0.1 -0.1)">
       <defs>
        <path id="DejaVuSans-2e" d="M 684 794 
L 1344 794 
L 1344 0 
L 684 0 
L 684 794 
z
" transform="scale(0.015625)"/>
       </defs>
       <use xlink:href="#DejaVuSans-30"/>
       <use xlink:href="#DejaVuSans-2e" x="63.623047"/>
       <use xlink:href="#DejaVuSans-30" x="95.410156"/>
      </g>
     </g>
    </g>
    <g id="ytick_2">
     <g id="line2d_13">
      <g>
       <use xlink:href="#me28f96ead1" x="180" y="550.781102" style="stroke: #000000; stroke-width: 0.8"/>
      </g>
     </g>
     <g id="text_14">
      <!-- 2.5 -->
      <g transform="translate(157.096875 554.580321)scale(0.1 -0.1)">
       <use xlink:href="#DejaVuSans-32"/>
       <use xlink:href="#DejaVuSans-2e" x="63.623047"/>
       <use xlink:href="#DejaVuSans-35" x="95.410156"/>
      </g>
     </g>
    </g>
    <g id="ytick_3">
     <g id="line2d_14">
      <g>
       <use xlink:href="#me28f96ead1" x="180" y="484.63937" style="stroke: #000000; stroke-width: 0.8"/>
      </g>
     </g>
     <g id="text_15">
      <!-- 5.0 -->
      <g transform="translate(157.096875 488.438589)scale(0.1 -0.1)">
       <use xlink:href="#DejaVuSans-35"/>
       <use xlink:href="#DejaVuSans-2e" x="63.623047"/>
       <use xlink:href="#DejaVuSans-30" x="95.410156"/>
      </g>
     </g>
    </g>
    <g id="ytick_4">
     <g id="line2d_15">
      <g>
       <use xlink:href="#me28f96ead1" x="180" y="418.497638" style="stroke: #000000; stroke-width: 0.8"/>
      </g>
     </g>
     <g id="text_16">
      <!-- 7.5 -->
      <g transform="translate(157.096875 422.296857)scale(0.1 -0.1)">
       <use xlink:href="#DejaVuSans-37"/>
       <use xlink:href="#DejaVuSans-2e" x="63.623047"/>
       <use xlink:href="#DejaVuSans-35" x="95.410156"/>
      </g>
     </g>
    </g>
    <g id="ytick_5">
     <g id="line2d_16">
      <g>
       <use xlink:href="#me28f96ead1" x="180" y="352.355906" style="stroke: #000000; stroke-width: 0.8"/>
      </g>
     </g>
     <g id="text_17">
      <!-- 10.0 -->
      <g transform="translate(150.734375 356.155124)scale(0.1 -0.1)">
       <use xlink:href="#DejaVuSans-31"/>
       <use xlink:href="#DejaVuSans-30" x="63.623047"/>
       <use xlink:href="#DejaVuSans-2e" x="127.246094"/>
       <use xlink:href="#DejaVuSans-30" x="159.033203"/>
      </g>
     </g>
    </g>
    <g id="ytick_6">
     <g id="line2d_17">
      <g>
       <use xlink:href="#me28f96ead1" x="180" y="286.214173" style="stroke: #000000; stroke-width: 0.8"/>
      </g>
     </g>
     <g id="text_18">
      <!-- 12.5 -->
      <g transform="translate(150.734375 290.013392)scale(0.1 -0.1)">
       <use xlink:href="#DejaVuSans-31"/>
       <use xlink:href="#DejaVuSans-32" x="63.623047"/>
       <use xlink:href="#DejaVuSans-2e" x="127.246094"/>
       <use xlink:href="#DejaVuSans-35" x="159.033203"/>
      </g>
     </g>
    </g>
    <g id="ytick_7">
     <g id="line2d_18">
      <g>
       <use xlink:href="#me28f96ead1" x="180" y="220.072441" style="stroke: #000000; stroke-width: 0.8"/>
      </g>
     </g>
     <g id="text_19">
      <!-- 15.0 -->
      <g transform="translate(150.734375 223.87166)scale(0.1 -0.1)">
       <use xlink:href="#DejaVuSans-31"/>
       <use xlink:href="#DejaVuSans-35" x="63.623047"/>
       <use xlink:href="#DejaVuSans-2e" x="127.246094"/>
       <use xlink:href="#DejaVuSans-30" x="159.033203"/>
      </g>
     </g>
    </g>
    <g id="ytick_8">
     <g id="line2d_19">
      <g>
       <use xlink:href="#me28f96ead1" x="180" y="153.930709" style="stroke: #000000; stroke-width: 0.8"/>
      </g>
     </g>
     <g id="text_20">
      <!-- 17.5 -->
      <g transform="translate(150.734375 157.729927)scale(0.1 -0.1)">
       <use xlink:href="#DejaVuSans-31"/>
       <use xlink:href="#DejaVuSans-37" x="63.623047"/>
       <use xlink:href="#DejaVuSans-2e" x="127.246094"/>
       <use xlink:href="#DejaVuSans-35" x="159.033203"/>
      </g>
     </g>
    </g>
    <g id="ytick_9">
     <g id="line2d_20">
      <g>
       <use xlink:href="#me28f96ead1" x="180" y="87.788976" style="stroke: #000000; stroke-width: 0.8"/>
      </g>
     </g>
     <g id="text_21">
      <!-- 20.0 -->
      <g transform="translate(150.734375 91.588195)scale(0.1 -0.1)">
       <use xlink:href="#DejaVuSans-32"/>
       <use xlink:href="#DejaVuSans-30" x="63.623047"/>
       <use xlink:href="#DejaVuSans-2e" x="127.246094"/>
       <use xlink:href="#DejaVuSans-30" x="159.033203"/>
      </g>
     </g>
    </g>
    <g id="text_22">
     <!-- Rate as % -->
     <g transform="translate(144.654687 388.660156)rotate(-90)scale(0.1 -0.1)">
      <defs>
       <path id="DejaVuSans-52" d="M 2841 2188 
Q 3044 2119 3236 1894 
Q 3428 1669 3622 1275 
L 4263 0 
L 3584 0 
L 2988 1197 
Q 2756 1666 2539 1819 
Q 2322 1972 1947 1972 
L 1259 1972 
L 1259 0 
L 628 0 
L 628 4666 
L 2053 4666 
Q 2853 4666 3247 4331 
Q 3641 3997 3641 3322 
Q 3641 2881 3436 2590 
Q 3231 2300 2841 2188 
z
M 1259 4147 
L 1259 2491 
L 2053 2491 
Q 2509 2491 2742 2702 
Q 2975 2913 2975 3322 
Q 2975 3731 2742 3939 
Q 2509 4147 2053 4147 
L 1259 4147 
z
" transform="scale(0.015625)"/>
       <path id="DejaVuSans-73" d="M 2834 3397 
L 2834 2853 
Q 2591 2978 2328 3040 
Q 2066 3103 1784 3103 
Q 1356 3103 1142 2972 
Q 928 2841 928 2578 
Q 928 2378 1081 2264 
Q 1234 2150 1697 2047 
L 1894 2003 
Q 2506 1872 2764 1633 
Q 3022 1394 3022 966 
Q 3022 478 2636 193 
Q 2250 -91 1575 -91 
Q 1294 -91 989 -36 
Q 684 19 347 128 
L 347 722 
Q 666 556 975 473 
Q 1284 391 1588 391 
Q 1994 391 2212 530 
Q 2431 669 2431 922 
Q 2431 1156 2273 1281 
Q 2116 1406 1581 1522 
L 1381 1569 
Q 847 1681 609 1914 
Q 372 2147 372 2553 
Q 372 3047 722 3315 
Q 1072 3584 1716 3584 
Q 2034 3584 2315 3537 
Q 2597 3491 2834 3397 
z
" transform="scale(0.015625)"/>
       <path id="DejaVuSans-25" d="M 4653 2053 
Q 4381 2053 4226 1822 
Q 4072 1591 4072 1178 
Q 4072 772 4226 539 
Q 4381 306 4653 306 
Q 4919 306 5073 539 
Q 5228 772 5228 1178 
Q 5228 1588 5073 1820 
Q 4919 2053 4653 2053 
z
M 4653 2450 
Q 5147 2450 5437 2106 
Q 5728 1763 5728 1178 
Q 5728 594 5436 251 
Q 5144 -91 4653 -91 
Q 4153 -91 3862 251 
Q 3572 594 3572 1178 
Q 3572 1766 3864 2108 
Q 4156 2450 4653 2450 
z
M 1428 4353 
Q 1159 4353 1004 4120 
Q 850 3888 850 3481 
Q 850 3069 1003 2837 
Q 1156 2606 1428 2606 
Q 1700 2606 1854 2837 
Q 2009 3069 2009 3481 
Q 2009 3884 1853 4118 
Q 1697 4353 1428 4353 
z
M 4250 4750 
L 4750 4750 
L 1831 -91 
L 1331 -91 
L 4250 4750 
z
M 1428 4750 
Q 1922 4750 2215 4408 
Q 2509 4066 2509 3481 
Q 2509 2891 2217 2550 
Q 1925 2209 1428 2209 
Q 931 2209 642 2551 
Q 353 2894 353 3481 
Q 353 4063 643 4406 
Q 934 4750 1428 4750 
z
" transform="scale(0.015625)"/>
      </defs>
      <use xlink:href="#DejaVuSans-52"/>
      <use xlink:href="#DejaVuSans-61" x="67.232422"/>
      <use xlink:href="#DejaVuSans-74" x="128.511719"/>
      <use xlink:href="#DejaVuSans-65" x="167.720703"/>
      <use xlink:href="#DejaVuSans-20" x="229.244141"/>
      <use xlink:href="#DejaVuSans-61" x="261.03125"/>
      <use xlink:href="#DejaVuSans-73" x="322.310547"/>
      <use xlink:href="#DejaVuSans-20" x="374.410156"/>
      <use xlink:href="#DejaVuSans-25" x="406.197266"/>
     </g>
    </g>
   </g>
   <g id="line2d_21">
    <path d="M 180 450.245669 
L 181.382679 452.891339 
L 182.765357 447.6 
L 184.103433 463.474016 
L 185.486112 468.765354 
L 186.824188 479.348031 
L 188.206866 476.702362 
L 189.589545 484.63937 
L 190.838416 489.930709 
L 192.221094 492.576378 
L 194.941849 492.576378 
L 196.279925 495.222047 
L 197.662603 487.285039 
L 200.383358 481.993701 
L 201.766037 487.285039 
L 203.104113 487.285039 
L 204.486791 497.867717 
L 205.86947 503.159055 
L 207.162943 481.993701 
L 208.545622 489.930709 
L 209.883698 484.63937 
L 211.266376 481.993701 
L 212.604452 466.119685 
L 213.987131 489.930709 
L 215.369809 495.222047 
L 216.707885 492.576378 
L 218.090564 487.285039 
L 219.42864 492.576378 
L 220.811318 489.930709 
L 222.193997 497.867717 
L 223.442868 503.159055 
L 224.825547 505.804724 
L 226.163623 492.576378 
L 227.546301 489.930709 
L 228.884377 489.930709 
L 231.649734 495.222047 
L 232.98781 495.222047 
L 234.370489 481.993701 
L 235.708565 481.993701 
L 237.091243 460.828346 
L 238.473922 442.308661 
L 239.722793 442.308661 
L 241.105471 415.851969 
L 242.443547 423.788976 
L 243.826226 429.080315 
L 245.164302 423.788976 
L 246.546981 426.434646 
L 247.929659 431.725984 
L 249.267735 439.662992 
L 250.650414 458.182677 
L 251.98849 452.891339 
L 253.371168 452.891339 
L 254.753847 458.182677 
L 256.002718 452.891339 
L 257.385396 455.537008 
L 258.723472 463.474016 
L 260.106151 468.765354 
L 261.444227 466.119685 
L 262.826905 468.765354 
L 264.209584 468.765354 
L 265.54766 455.537008 
L 266.930339 463.474016 
L 268.268415 463.474016 
L 269.651093 466.119685 
L 271.033772 474.056693 
L 272.327245 463.474016 
L 273.709924 471.411024 
L 275.048 471.411024 
L 276.430678 466.119685 
L 277.768754 463.474016 
L 279.151433 463.474016 
L 280.534111 466.119685 
L 281.872187 447.6 
L 283.254866 444.954331 
L 284.592942 431.725984 
L 285.97562 434.371654 
L 287.358299 423.788976 
L 288.60717 421.143307 
L 291.327925 421.143307 
L 292.710603 415.851969 
L 294.048679 413.206299 
L 295.431358 431.725984 
L 296.814036 423.788976 
L 298.152112 426.434646 
L 299.534791 442.308661 
L 300.872867 447.6 
L 302.255545 439.662992 
L 303.638224 452.891339 
L 304.887095 450.245669 
L 306.269773 452.891339 
L 308.990528 463.474016 
L 311.711283 447.6 
L 313.093961 450.245669 
L 314.432037 455.537008 
L 315.814716 450.245669 
L 317.152792 452.891339 
L 318.53547 447.6 
L 319.918149 444.954331 
L 321.16702 452.891339 
L 322.549698 452.891339 
L 323.887774 439.662992 
L 325.270453 447.6 
L 326.608529 442.308661 
L 327.991207 450.245669 
L 329.373886 442.308661 
L 332.094641 442.308661 
L 333.432717 447.6 
L 334.815395 442.308661 
L 336.198074 444.954331 
L 337.491547 442.308661 
L 338.874226 447.6 
L 341.59498 452.891339 
L 342.933056 458.182677 
L 344.315735 460.828346 
L 347.036489 455.537008 
L 348.419168 460.828346 
L 349.757244 452.891339 
L 351.139922 460.828346 
L 352.522601 447.6 
L 353.771472 460.828346 
L 355.154151 460.828346 
L 356.492227 471.411024 
L 357.874905 466.119685 
L 359.212981 476.702362 
L 360.59566 479.348031 
L 361.978338 474.056693 
L 363.316414 481.993701 
L 364.699093 474.056693 
L 366.037169 481.993701 
L 367.419847 484.63937 
L 368.802526 492.576378 
L 370.051397 489.930709 
L 371.434075 489.930709 
L 372.772151 479.348031 
L 374.15483 487.285039 
L 375.492906 489.930709 
L 376.875585 487.285039 
L 378.258263 492.576378 
L 379.596339 487.285039 
L 380.979018 495.222047 
L 382.317094 489.930709 
L 383.699772 474.056693 
L 385.082451 479.348031 
L 386.331322 481.993701 
L 387.714 487.285039 
L 390.434755 481.993701 
L 391.772831 481.993701 
L 393.155509 487.285039 
L 394.538188 476.702362 
L 395.876264 468.765354 
L 397.258942 479.348031 
L 399.979697 484.63937 
L 401.362376 481.993701 
L 402.655849 489.930709 
L 404.038528 492.576378 
L 405.376604 492.576378 
L 406.759282 487.285039 
L 408.097358 484.63937 
L 409.480037 492.576378 
L 410.862715 497.867717 
L 412.200791 497.867717 
L 413.58347 495.222047 
L 418.935774 495.222047 
L 420.318452 492.576378 
L 421.656529 495.222047 
L 423.039207 489.930709 
L 424.377283 495.222047 
L 425.759962 489.930709 
L 428.480716 484.63937 
L 429.863395 497.867717 
L 431.201471 497.867717 
L 432.584149 487.285039 
L 433.966828 481.993701 
L 435.215699 468.765354 
L 436.598377 471.411024 
L 437.936453 466.119685 
L 439.319132 466.119685 
L 440.657208 463.474016 
L 442.039886 458.182677 
L 443.422565 450.245669 
L 444.760641 447.6 
L 446.14332 434.371654 
L 447.481396 434.371654 
L 448.864074 437.017323 
L 450.246753 437.017323 
L 451.495624 429.080315 
L 454.216378 434.371654 
L 455.599057 434.371654 
L 456.937133 431.725984 
L 458.319811 431.725984 
L 461.040566 437.017323 
L 462.423244 431.725984 
L 463.76132 437.017323 
L 465.143999 439.662992 
L 466.526678 447.6 
L 467.820151 439.662992 
L 469.20283 439.662992 
L 470.540906 442.308661 
L 473.26166 431.725984 
L 474.644339 434.371654 
L 476.027017 439.662992 
L 477.365093 437.017323 
L 478.747772 452.891339 
L 480.085848 452.891339 
L 481.468526 455.537008 
L 482.851205 452.891339 
L 484.100076 458.182677 
L 485.482754 455.537008 
L 486.820831 466.119685 
L 488.203509 458.182677 
L 490.924264 458.182677 
L 492.306942 455.537008 
L 493.645018 466.119685 
L 495.027697 458.182677 
L 497.748451 452.891339 
L 499.13113 452.891339 
L 500.380001 455.537008 
L 501.762679 458.182677 
L 503.100755 450.245669 
L 504.483434 444.954331 
L 505.82151 437.017323 
L 507.204188 444.954331 
L 508.586867 429.080315 
L 509.924943 429.080315 
L 511.307622 407.914961 
L 512.645698 397.332283 
L 514.028376 373.52126 
L 515.411055 376.166929 
L 516.659926 362.938583 
L 518.042604 362.938583 
L 519.38068 357.647244 
L 520.763359 368.229921 
L 523.484113 373.52126 
L 524.866792 378.812598 
L 526.204868 373.52126 
L 527.587546 378.812598 
L 528.925622 376.166929 
L 530.308301 381.458268 
L 531.69098 384.103937 
L 532.984453 389.395276 
L 534.367132 389.395276 
L 535.705208 402.623622 
L 537.087886 394.686614 
L 538.425962 384.103937 
L 539.808641 378.812598 
L 541.191319 386.749606 
L 543.912074 386.749606 
L 545.25015 392.040945 
L 546.632828 392.040945 
L 548.015507 389.395276 
L 549.264378 389.395276 
L 550.647056 394.686614 
L 551.985132 407.914961 
L 553.367811 394.686614 
L 554.705887 405.269291 
L 556.088566 402.623622 
L 557.471244 402.623622 
L 558.80932 407.914961 
L 560.191999 402.623622 
L 561.530075 418.497638 
L 562.912753 415.851969 
L 564.295432 426.434646 
L 565.544303 426.434646 
L 566.926981 429.080315 
L 568.265057 426.434646 
L 569.647736 426.434646 
L 570.985812 415.851969 
L 572.36849 426.434646 
L 573.751169 426.434646 
L 575.089245 439.662992 
L 576.471924 431.725984 
L 577.81 431.725984 
L 579.192678 434.371654 
L 580.575357 434.371654 
L 581.824228 437.017323 
L 583.206906 437.017323 
L 584.544982 439.662992 
L 585.927661 437.017323 
L 587.265737 442.308661 
L 588.648415 429.080315 
L 590.031094 439.662992 
L 591.36917 434.371654 
L 592.751848 439.662992 
L 596.855282 431.725984 
L 598.148755 434.371654 
L 600.86951 418.497638 
L 602.252188 415.851969 
L 603.590264 410.56063 
L 604.972943 410.56063 
L 606.355621 423.788976 
L 607.693697 413.206299 
L 609.076376 415.851969 
L 610.414452 415.851969 
L 611.79713 410.56063 
L 613.179809 413.206299 
L 614.42868 413.206299 
L 615.811358 415.851969 
L 617.149434 410.56063 
L 618.532113 410.56063 
L 619.870189 413.206299 
L 621.252868 413.206299 
L 622.635546 402.623622 
L 623.973622 397.332283 
L 626.694377 392.040945 
L 628.077055 392.040945 
L 629.459734 381.458268 
L 630.708605 381.458268 
L 632.091283 370.875591 
L 633.429359 370.875591 
L 634.812038 373.52126 
L 636.150114 362.938583 
L 637.532792 368.229921 
L 638.915471 365.584252 
L 640.253547 357.647244 
L 641.636226 347.064567 
L 642.974302 341.773228 
L 644.35698 349.710236 
L 645.739659 355.001575 
L 646.98853 357.647244 
L 648.371208 365.584252 
L 649.709284 365.584252 
L 651.091963 355.001575 
L 652.430039 378.812598 
L 653.812717 378.812598 
L 655.195396 386.749606 
L 656.533472 392.040945 
L 657.91615 399.977953 
L 659.254226 397.332283 
L 660.636905 407.914961 
L 662.019584 410.56063 
L 664.695736 410.56063 
L 667.41649 421.143307 
L 670.137245 410.56063 
L 671.519923 421.143307 
L 672.857999 413.206299 
L 674.240678 421.143307 
L 675.578754 421.143307 
L 676.961432 415.851969 
L 678.344111 421.143307 
L 679.592982 418.497638 
L 680.97566 418.497638 
L 682.313736 415.851969 
L 683.696415 418.497638 
L 685.034491 415.851969 
L 686.41717 423.788976 
L 687.799848 421.143307 
L 690.520603 426.434646 
L 691.858679 426.434646 
L 693.241357 434.371654 
L 694.624036 421.143307 
L 697.255585 421.143307 
L 698.593661 423.788976 
L 699.97634 423.788976 
L 701.314416 431.725984 
L 702.697094 434.371654 
L 706.800528 434.371654 
L 708.138604 444.954331 
L 709.521282 442.308661 
L 710.903961 442.308661 
L 712.152832 439.662992 
L 713.53551 450.245669 
L 714.873586 452.891339 
L 716.256265 458.182677 
L 720.359698 458.182677 
L 721.697774 455.537008 
L 723.080452 458.182677 
L 724.418528 463.474016 
L 725.801207 463.474016 
L 727.183886 460.828346 
L 728.477359 466.119685 
L 729.860038 468.765354 
L 731.198114 468.765354 
L 732.580792 474.056693 
L 735.301547 468.765354 
L 739.40498 476.702362 
L 740.743056 476.702362 
L 742.125734 474.056693 
L 743.508413 481.993701 
L 744.757284 479.348031 
L 747.478038 474.056693 
L 748.860717 468.765354 
L 750.198793 468.765354 
L 752.96415 479.348031 
L 754.302226 474.056693 
L 757.022981 474.056693 
L 758.405659 476.702362 
L 759.788338 474.056693 
L 761.037209 476.702362 
L 762.419887 474.056693 
L 763.757963 474.056693 
L 765.140642 479.348031 
L 769.244075 463.474016 
L 770.582151 466.119685 
L 771.96483 460.828346 
L 773.302906 460.828346 
L 774.685584 452.891339 
L 776.068263 455.537008 
L 777.317134 450.245669 
L 778.699812 452.891339 
L 780.037888 442.308661 
L 781.420567 444.954331 
L 782.758643 450.245669 
L 784.141321 444.954331 
L 785.524 447.6 
L 786.862076 442.308661 
L 788.244754 439.662992 
L 789.58283 434.371654 
L 790.965509 439.662992 
L 792.348188 434.371654 
L 795.02434 434.371654 
L 797.745094 423.788976 
L 799.08317 423.788976 
L 800.465849 426.434646 
L 801.848527 426.434646 
L 803.186603 437.017323 
L 805.907358 426.434646 
L 807.290036 431.725984 
L 808.672715 434.371654 
L 809.921586 444.954331 
L 811.304264 439.662992 
L 812.64234 437.017323 
L 814.025019 439.662992 
L 815.363095 444.954331 
L 816.745774 447.6 
L 818.128452 447.6 
L 819.466528 444.954331 
L 820.849207 444.954331 
L 822.187283 447.6 
L 824.95264 447.6 
L 826.201511 444.954331 
L 827.584189 450.245669 
L 828.922265 458.182677 
L 830.304944 455.537008 
L 831.64302 460.828346 
L 833.025698 458.182677 
L 834.408377 460.828346 
L 835.746453 466.119685 
L 838.467208 471.411024 
L 839.849886 468.765354 
L 841.232565 471.411024 
L 842.481436 471.411024 
L 843.864114 460.828346 
L 845.20219 471.411024 
L 846.584869 466.119685 
L 847.922945 463.474016 
L 849.305623 468.765354 
L 850.688302 466.119685 
L 852.026378 466.119685 
L 853.409056 471.411024 
L 854.747132 471.411024 
L 856.129811 463.474016 
L 857.51249 474.056693 
L 858.805963 476.702362 
L 860.188642 471.411024 
L 861.526718 471.411024 
L 862.909396 476.702362 
L 864.247472 474.056693 
L 867.012829 479.348031 
L 868.350905 474.056693 
L 869.733584 474.056693 
L 871.07166 466.119685 
L 872.454338 476.702362 
L 873.837017 474.056693 
L 875.085888 479.348031 
L 876.468566 484.63937 
L 877.806642 479.348031 
L 879.189321 484.63937 
L 880.527397 484.63937 
L 881.910076 487.285039 
L 883.292754 484.63937 
L 884.63083 492.576378 
L 886.013509 492.576378 
L 887.351585 489.930709 
L 891.365813 489.930709 
L 892.748491 495.222047 
L 894.086567 497.867717 
L 895.469246 495.222047 
L 896.807322 497.867717 
L 898.19 495.222047 
L 899.572679 495.222047 
L 900.910755 492.576378 
L 902.293434 495.222047 
L 903.63151 500.513386 
L 905.014188 500.513386 
L 906.396867 497.867717 
L 907.645738 500.513386 
L 909.028416 495.222047 
L 910.366492 505.804724 
L 911.749171 500.513386 
L 913.087247 497.867717 
L 914.469925 503.159055 
L 915.852604 500.513386 
L 917.19068 508.450394 
L 918.573358 505.804724 
L 919.911434 508.450394 
L 922.676791 508.450394 
L 923.970265 503.159055 
L 925.352944 511.096063 
L 926.69102 505.804724 
L 928.073698 508.450394 
L 930.794453 503.159055 
L 932.177131 511.096063 
L 933.515207 513.741732 
L 934.897886 511.096063 
L 936.235962 516.387402 
L 937.61864 508.450394 
L 939.001319 505.804724 
L 940.25019 505.804724 
L 941.632868 503.159055 
L 942.970944 505.804724 
L 944.353623 500.513386 
L 945.691699 497.867717 
L 947.074378 489.930709 
L 951.177811 474.056693 
L 952.515887 466.119685 
L 953.898565 471.411024 
L 955.281244 471.411024 
L 956.530115 468.765354 
L 957.912793 460.828346 
L 959.250869 466.119685 
L 960.633548 468.765354 
L 961.971624 466.119685 
L 963.354302 471.411024 
L 964.736981 471.411024 
L 966.075057 468.765354 
L 967.457736 468.765354 
L 968.795812 466.119685 
L 970.17849 474.056693 
L 971.561169 468.765354 
L 972.81004 466.119685 
L 975.530794 466.119685 
L 976.913473 460.828346 
L 978.251549 466.119685 
L 979.634227 463.474016 
L 981.016906 463.474016 
L 982.354982 466.119685 
L 983.73766 474.056693 
L 985.075736 468.765354 
L 986.458415 466.119685 
L 987.841093 471.411024 
L 989.134567 463.474016 
L 990.517246 474.056693 
L 991.855322 474.056693 
L 993.238 468.765354 
L 994.576076 471.411024 
L 995.958755 479.348031 
L 997.341433 479.348031 
L 998.679509 476.702362 
L 1001.400264 481.993701 
L 1002.782942 481.993701 
L 1004.165621 476.702362 
L 1005.414492 481.993701 
L 1006.79717 479.348031 
L 1008.135246 479.348031 
L 1009.517925 481.993701 
L 1010.856001 481.993701 
L 1012.23868 487.285039 
L 1013.621358 481.993701 
L 1016.342113 481.993701 
L 1017.680189 487.285039 
L 1019.062867 489.930709 
L 1020.445546 489.930709 
L 1021.694417 492.576378 
L 1023.077095 492.576378 
L 1024.415171 497.867717 
L 1027.135926 492.576378 
L 1028.518604 495.222047 
L 1029.901283 492.576378 
L 1031.239359 500.513386 
L 1032.622037 497.867717 
L 1033.960114 500.513386 
L 1035.342792 497.867717 
L 1036.725471 503.159055 
L 1037.974342 503.159055 
L 1039.35702 500.513386 
L 1040.695096 503.159055 
L 1042.077775 500.513386 
L 1043.415851 495.222047 
L 1044.798529 495.222047 
L 1046.181208 497.867717 
L 1047.519284 495.222047 
L 1048.901962 495.222047 
L 1050.240038 487.285039 
L 1053.005395 492.576378 
L 1054.298869 484.63937 
L 1055.681548 489.930709 
L 1057.019624 479.348031 
L 1058.402302 476.702362 
L 1059.740378 476.702362 
L 1061.123057 460.828346 
L 1062.505735 471.411024 
L 1063.843811 460.828346 
L 1066.564566 444.954331 
L 1067.947244 431.725984 
L 1069.329923 423.788976 
L 1070.578794 415.851969 
L 1071.961472 415.851969 
L 1073.299548 405.269291 
L 1074.682227 397.332283 
L 1077.402981 397.332283 
L 1080.123736 386.749606 
L 1081.506415 389.395276 
L 1082.844491 386.749606 
L 1084.227169 394.686614 
L 1085.609848 389.395276 
L 1086.858719 386.749606 
L 1088.241397 384.103937 
L 1089.579473 384.103937 
L 1090.962152 397.332283 
L 1092.300228 392.040945 
L 1093.682906 389.395276 
L 1095.065585 389.395276 
L 1096.403661 386.749606 
L 1097.786339 378.812598 
L 1099.124415 392.040945 
L 1101.889773 392.040945 
L 1103.138644 394.686614 
L 1104.521322 392.040945 
L 1107.242077 392.040945 
L 1108.580153 394.686614 
L 1109.962831 392.040945 
L 1111.34551 386.749606 
L 1112.683586 394.686614 
L 1114.066264 397.332283 
L 1115.40434 397.332283 
L 1119.463171 405.269291 
L 1120.845849 405.269291 
L 1122.183926 407.914961 
L 1123.566604 407.914961 
L 1124.90468 405.269291 
L 1127.670037 415.851969 
L 1130.390792 415.851969 
L 1131.728868 407.914961 
L 1133.111546 410.56063 
L 1134.494225 415.851969 
L 1135.743096 418.497638 
L 1138.46385 429.080315 
L 1139.846529 423.788976 
L 1141.184605 437.017323 
L 1142.567283 439.662992 
L 1143.949962 439.662992 
L 1145.288038 437.017323 
L 1148.008793 442.308661 
L 1149.391471 450.245669 
L 1150.77415 447.6 
L 1152.023021 442.308661 
L 1153.405699 455.537008 
L 1154.743775 452.891339 
L 1156.126454 463.474016 
L 1157.46453 455.537008 
L 1158.847208 458.182677 
L 1160.229887 458.182677 
L 1162.950641 463.474016 
L 1164.288717 474.056693 
L 1165.671396 471.411024 
L 1167.054075 476.702362 
L 1168.302946 476.702362 
L 1171.0237 471.411024 
L 1172.406379 481.993701 
L 1173.744455 479.348031 
L 1175.127133 484.63937 
L 1179.230566 484.63937 
L 1180.568642 487.285039 
L 1181.951321 487.285039 
L 1183.333999 489.930709 
L 1184.627473 481.993701 
L 1186.010151 484.63937 
L 1187.348227 489.930709 
L 1188.730906 489.930709 
L 1190.068982 497.867717 
L 1191.451661 489.930709 
L 1192.834339 489.930709 
L 1195.555094 495.222047 
L 1196.89317 495.222047 
L 1198.275848 492.576378 
L 1199.658527 495.222047 
L 1200.907398 503.159055 
L 1202.290076 497.867717 
L 1206.348907 505.804724 
L 1207.731585 503.159055 
L 1209.114264 505.804724 
L 1210.45234 511.096063 
L 1211.835019 508.450394 
L 1213.173095 508.450394 
L 1214.555773 511.096063 
L 1215.938452 508.450394 
L 1217.187323 511.096063 
L 1218.570001 513.741732 
L 1219.908077 521.67874 
L 1221.290756 513.741732 
L 1222.628832 513.741732 
L 1224.01151 516.387402 
L 1225.394189 521.67874 
L 1228.114943 516.387402 
L 1229.453019 516.387402 
L 1230.835698 513.741732 
L 1232.218377 519.033071 
L 1233.467248 519.033071 
L 1234.849926 524.324409 
L 1236.188002 521.67874 
L 1237.570681 521.67874 
L 1238.908757 519.033071 
L 1240.291435 521.67874 
L 1241.674114 526.970079 
L 1244.394868 521.67874 
L 1245.732944 521.67874 
L 1248.498301 526.970079 
L 1249.791775 500.513386 
L 1251.174453 188.324409 
L 1252.512529 233.300787 
L 1253.895208 310.025197 
L 1255.233284 333.83622 
L 1256.615963 389.395276 
L 1257.998641 402.623622 
L 1259.336717 439.662992 
L 1260.719396 447.6 
L 1262.057472 439.662992 
L 1263.44015 450.245669 
L 1264.822829 455.537008 
L 1266.0717 460.828346 
L 1267.454378 463.474016 
L 1268.792454 471.411024 
L 1270.175133 466.119685 
L 1271.513209 479.348031 
L 1272.895887 484.63937 
L 1274.278566 497.867717 
L 1275.616642 495.222047 
L 1276.999321 505.804724 
L 1278.337397 513.741732 
L 1281.102754 513.741732 
L 1282.351625 521.67874 
L 1283.734303 524.324409 
L 1285.072379 519.033071 
L 1286.455058 521.67874 
L 1287.793134 526.970079 
L 1289.175812 524.324409 
L 1290.558491 526.970079 
L 1291.896567 519.033071 
L 1293.279245 521.67874 
L 1294.617321 521.67874 
L 1296 529.615748 
L 1296 529.615748 
" clip-path="url(#p88e63e71d9)" style="fill: none; stroke: #440154; stroke-width: 1.5; stroke-linecap: square"/>
   </g>
   <g id="line2d_22">
    <path d="M 180 468.765354 
L 181.382679 458.182677 
L 182.765357 458.182677 
L 184.103433 466.119685 
L 185.486112 479.348031 
L 188.206866 489.930709 
L 189.589545 497.867717 
L 190.838416 497.867717 
L 192.221094 492.576378 
L 193.55917 511.096063 
L 196.279925 516.387402 
L 197.662603 513.741732 
L 199.045282 519.033071 
L 200.383358 513.741732 
L 201.766037 513.741732 
L 203.104113 516.387402 
L 207.162943 516.387402 
L 208.545622 521.67874 
L 209.883698 513.741732 
L 211.266376 511.096063 
L 212.604452 516.387402 
L 216.707885 524.324409 
L 218.090564 511.096063 
L 219.42864 513.741732 
L 220.811318 513.741732 
L 222.193997 521.67874 
L 223.442868 524.324409 
L 224.825547 516.387402 
L 226.163623 516.387402 
L 227.546301 511.096063 
L 228.884377 516.387402 
L 230.267056 513.741732 
L 231.649734 503.159055 
L 232.98781 500.513386 
L 234.370489 479.348031 
L 235.708565 479.348031 
L 237.091243 466.119685 
L 238.473922 450.245669 
L 239.722793 439.662992 
L 241.105471 423.788976 
L 242.443547 418.497638 
L 243.826226 421.143307 
L 245.164302 415.851969 
L 246.546981 418.497638 
L 250.650414 450.245669 
L 251.98849 452.891339 
L 253.371168 460.828346 
L 254.753847 463.474016 
L 256.002718 476.702362 
L 257.385396 489.930709 
L 258.723472 489.930709 
L 260.106151 492.576378 
L 262.826905 481.993701 
L 264.209584 471.411024 
L 265.54766 471.411024 
L 266.930339 460.828346 
L 268.268415 484.63937 
L 269.651093 484.63937 
L 271.033772 495.222047 
L 272.327245 476.702362 
L 273.709924 484.63937 
L 275.048 484.63937 
L 276.430678 479.348031 
L 277.768754 476.702362 
L 279.151433 468.765354 
L 280.534111 471.411024 
L 281.872187 460.828346 
L 283.254866 458.182677 
L 284.592942 450.245669 
L 285.97562 444.954331 
L 287.358299 442.308661 
L 288.60717 442.308661 
L 289.989849 437.017323 
L 291.327925 434.371654 
L 292.710603 444.954331 
L 294.048679 442.308661 
L 295.431358 447.6 
L 296.814036 450.245669 
L 298.152112 455.537008 
L 299.534791 463.474016 
L 300.872867 466.119685 
L 302.255545 474.056693 
L 303.638224 479.348031 
L 307.607849 479.348031 
L 308.990528 476.702362 
L 310.328604 481.993701 
L 311.711283 476.702362 
L 313.093961 479.348031 
L 314.432037 484.63937 
L 315.814716 476.702362 
L 317.152792 481.993701 
L 319.918149 466.119685 
L 321.16702 474.056693 
L 323.887774 474.056693 
L 325.270453 481.993701 
L 326.608529 481.993701 
L 327.991207 487.285039 
L 329.373886 487.285039 
L 330.711962 484.63937 
L 332.094641 476.702362 
L 333.432717 484.63937 
L 334.815395 484.63937 
L 336.198074 489.930709 
L 338.874226 489.930709 
L 340.212302 497.867717 
L 341.59498 492.576378 
L 342.933056 500.513386 
L 345.698413 495.222047 
L 347.036489 497.867717 
L 348.419168 503.159055 
L 352.522601 503.159055 
L 353.771472 508.450394 
L 355.154151 503.159055 
L 357.874905 513.741732 
L 360.59566 513.741732 
L 361.978338 519.033071 
L 363.316414 519.033071 
L 364.699093 526.970079 
L 367.419847 526.970079 
L 368.802526 529.615748 
L 370.051397 529.615748 
L 371.434075 534.907087 
L 372.772151 532.261417 
L 376.875585 532.261417 
L 379.596339 537.552756 
L 382.317094 532.261417 
L 383.699772 537.552756 
L 386.331322 537.552756 
L 389.052076 532.261417 
L 390.434755 532.261417 
L 391.772831 537.552756 
L 393.155509 534.907087 
L 394.538188 540.198425 
L 395.876264 534.907087 
L 398.597019 534.907087 
L 399.979697 537.552756 
L 401.362376 534.907087 
L 402.655849 537.552756 
L 404.038528 542.844094 
L 405.376604 545.489764 
L 406.759282 537.552756 
L 410.862715 545.489764 
L 416.304224 545.489764 
L 417.686903 548.135433 
L 418.935774 545.489764 
L 420.318452 548.135433 
L 421.656529 548.135433 
L 423.039207 545.489764 
L 424.377283 540.198425 
L 425.759962 542.844094 
L 427.14264 534.907087 
L 429.863395 540.198425 
L 431.201471 537.552756 
L 433.966828 521.67874 
L 435.215699 519.033071 
L 436.598377 511.096063 
L 437.936453 505.804724 
L 439.319132 497.867717 
L 440.657208 495.222047 
L 442.039886 495.222047 
L 446.14332 479.348031 
L 447.481396 468.765354 
L 448.864074 474.056693 
L 450.246753 476.702362 
L 451.495624 476.702362 
L 452.878302 479.348031 
L 454.216378 476.702362 
L 455.599057 476.702362 
L 458.319811 471.411024 
L 459.70249 474.056693 
L 461.040566 479.348031 
L 462.423244 474.056693 
L 463.76132 471.411024 
L 465.143999 476.702362 
L 467.820151 476.702362 
L 469.20283 481.993701 
L 470.540906 481.993701 
L 471.923584 487.285039 
L 473.26166 489.930709 
L 474.644339 487.285039 
L 476.027017 489.930709 
L 477.365093 489.930709 
L 478.747772 495.222047 
L 480.085848 497.867717 
L 481.468526 505.804724 
L 482.851205 503.159055 
L 486.820831 503.159055 
L 488.203509 508.450394 
L 489.541585 511.096063 
L 490.924264 508.450394 
L 493.645018 513.741732 
L 495.027697 508.450394 
L 496.365773 505.804724 
L 497.748451 500.513386 
L 499.13113 497.867717 
L 500.380001 500.513386 
L 501.762679 497.867717 
L 503.100755 500.513386 
L 504.483434 495.222047 
L 507.204188 489.930709 
L 508.586867 484.63937 
L 509.924943 476.702362 
L 511.307622 463.474016 
L 512.645698 447.6 
L 514.028376 423.788976 
L 515.411055 421.143307 
L 516.659926 407.914961 
L 518.042604 399.977953 
L 519.38068 394.686614 
L 522.101435 399.977953 
L 523.484113 407.914961 
L 524.866792 405.269291 
L 526.204868 410.56063 
L 527.587546 410.56063 
L 528.925622 415.851969 
L 531.69098 431.725984 
L 532.984453 434.371654 
L 534.367132 431.725984 
L 535.705208 434.371654 
L 537.087886 429.080315 
L 538.425962 429.080315 
L 539.808641 434.371654 
L 541.191319 431.725984 
L 542.529395 431.725984 
L 543.912074 423.788976 
L 545.25015 426.434646 
L 546.632828 437.017323 
L 548.015507 431.725984 
L 549.264378 442.308661 
L 550.647056 447.6 
L 553.367811 447.6 
L 554.705887 455.537008 
L 556.088566 452.891339 
L 557.471244 463.474016 
L 558.80932 458.182677 
L 560.191999 463.474016 
L 561.530075 471.411024 
L 562.912753 468.765354 
L 565.544303 468.765354 
L 566.926981 476.702362 
L 568.265057 479.348031 
L 569.647736 487.285039 
L 570.985812 481.993701 
L 572.36849 484.63937 
L 573.751169 481.993701 
L 575.089245 481.993701 
L 576.471924 484.63937 
L 577.81 476.702362 
L 579.192678 481.993701 
L 580.575357 479.348031 
L 581.824228 481.993701 
L 583.206906 481.993701 
L 584.544982 489.930709 
L 585.927661 487.285039 
L 587.265737 481.993701 
L 588.648415 479.348031 
L 590.031094 479.348031 
L 591.36917 476.702362 
L 594.089924 476.702362 
L 595.472603 463.474016 
L 596.855282 463.474016 
L 598.148755 460.828346 
L 599.531434 439.662992 
L 600.86951 421.143307 
L 603.590264 410.56063 
L 606.355621 415.851969 
L 607.693697 421.143307 
L 609.076376 423.788976 
L 610.414452 434.371654 
L 611.79713 426.434646 
L 613.179809 423.788976 
L 614.42868 429.080315 
L 615.811358 434.371654 
L 617.149434 423.788976 
L 618.532113 423.788976 
L 619.870189 434.371654 
L 621.252868 426.434646 
L 622.635546 426.434646 
L 623.973622 413.206299 
L 626.694377 392.040945 
L 628.077055 386.749606 
L 629.459734 384.103937 
L 630.708605 376.166929 
L 632.091283 368.229921 
L 633.429359 368.229921 
L 634.812038 357.647244 
L 637.532792 347.064567 
L 638.915471 336.48189 
L 640.253547 328.544882 
L 641.636226 323.253543 
L 642.974302 320.607874 
L 644.35698 333.83622 
L 645.739659 328.544882 
L 646.98853 333.83622 
L 648.371208 333.83622 
L 649.709284 339.127559 
L 651.091963 349.710236 
L 652.430039 357.647244 
L 653.812717 357.647244 
L 655.195396 365.584252 
L 656.533472 376.166929 
L 657.91615 389.395276 
L 659.254226 397.332283 
L 660.636905 402.623622 
L 662.019584 410.56063 
L 663.313057 413.206299 
L 664.695736 413.206299 
L 666.033812 423.788976 
L 667.41649 429.080315 
L 668.754566 421.143307 
L 670.137245 423.788976 
L 671.519923 423.788976 
L 672.857999 429.080315 
L 674.240678 431.725984 
L 675.578754 426.434646 
L 676.961432 429.080315 
L 678.344111 429.080315 
L 679.592982 431.725984 
L 680.97566 429.080315 
L 682.313736 434.371654 
L 683.696415 426.434646 
L 685.034491 426.434646 
L 686.41717 434.371654 
L 687.799848 434.371654 
L 689.137924 429.080315 
L 690.520603 434.371654 
L 691.858679 437.017323 
L 693.241357 444.954331 
L 694.624036 431.725984 
L 695.872907 431.725984 
L 697.255585 434.371654 
L 698.593661 429.080315 
L 701.314416 429.080315 
L 702.697094 434.371654 
L 704.079773 429.080315 
L 706.800528 434.371654 
L 708.138604 439.662992 
L 709.521282 439.662992 
L 710.903961 442.308661 
L 712.152832 444.954331 
L 713.53551 450.245669 
L 714.873586 447.6 
L 716.256265 450.245669 
L 717.594341 455.537008 
L 718.977019 455.537008 
L 720.359698 463.474016 
L 721.697774 460.828346 
L 723.080452 466.119685 
L 725.801207 466.119685 
L 727.183886 468.765354 
L 728.477359 466.119685 
L 729.860038 476.702362 
L 731.198114 468.765354 
L 732.580792 474.056693 
L 733.918868 476.702362 
L 735.301547 468.765354 
L 736.684225 476.702362 
L 738.022301 474.056693 
L 739.40498 476.702362 
L 740.743056 476.702362 
L 742.125734 474.056693 
L 743.508413 479.348031 
L 744.757284 487.285039 
L 746.139962 479.348031 
L 747.478038 484.63937 
L 748.860717 481.993701 
L 750.198793 484.63937 
L 751.581472 481.993701 
L 752.96415 474.056693 
L 754.302226 476.702362 
L 755.684905 474.056693 
L 757.022981 476.702362 
L 758.405659 474.056693 
L 759.788338 479.348031 
L 761.037209 479.348031 
L 762.419887 474.056693 
L 763.757963 476.702362 
L 765.140642 476.702362 
L 766.478718 468.765354 
L 767.861396 463.474016 
L 769.244075 460.828346 
L 770.582151 455.537008 
L 771.96483 447.6 
L 773.302906 444.954331 
L 774.685584 444.954331 
L 776.068263 434.371654 
L 777.317134 426.434646 
L 778.699812 429.080315 
L 780.037888 426.434646 
L 784.141321 426.434646 
L 785.524 423.788976 
L 786.862076 423.788976 
L 788.244754 421.143307 
L 790.965509 410.56063 
L 792.348188 407.914961 
L 793.641661 407.914961 
L 795.02434 413.206299 
L 796.362416 402.623622 
L 797.745094 397.332283 
L 799.08317 405.269291 
L 801.848527 405.269291 
L 803.186603 410.56063 
L 804.569282 410.56063 
L 807.290036 421.143307 
L 808.672715 421.143307 
L 809.921586 418.497638 
L 812.64234 423.788976 
L 814.025019 421.143307 
L 815.363095 426.434646 
L 819.466528 434.371654 
L 820.849207 439.662992 
L 822.187283 442.308661 
L 823.569961 437.017323 
L 824.95264 439.662992 
L 826.201511 444.954331 
L 827.584189 447.6 
L 828.922265 455.537008 
L 830.304944 455.537008 
L 831.64302 450.245669 
L 833.025698 455.537008 
L 834.408377 463.474016 
L 835.746453 463.474016 
L 837.129132 468.765354 
L 838.467208 471.411024 
L 839.849886 468.765354 
L 841.232565 474.056693 
L 842.481436 476.702362 
L 843.864114 468.765354 
L 845.20219 463.474016 
L 846.584869 468.765354 
L 847.922945 468.765354 
L 849.305623 466.119685 
L 850.688302 468.765354 
L 852.026378 474.056693 
L 853.409056 466.119685 
L 854.747132 466.119685 
L 856.129811 468.765354 
L 861.526718 468.765354 
L 862.909396 476.702362 
L 864.247472 471.411024 
L 865.630151 484.63937 
L 867.012829 479.348031 
L 868.350905 481.993701 
L 869.733584 476.702362 
L 871.07166 484.63937 
L 872.454338 476.702362 
L 873.837017 481.993701 
L 876.468566 481.993701 
L 877.806642 495.222047 
L 879.189321 484.63937 
L 880.527397 489.930709 
L 881.910076 489.930709 
L 883.292754 492.576378 
L 884.63083 492.576378 
L 886.013509 495.222047 
L 887.351585 492.576378 
L 888.734263 497.867717 
L 890.116942 497.867717 
L 891.365813 495.222047 
L 892.748491 508.450394 
L 894.086567 503.159055 
L 895.469246 500.513386 
L 896.807322 495.222047 
L 898.19 500.513386 
L 899.572679 495.222047 
L 900.910755 500.513386 
L 902.293434 503.159055 
L 903.63151 503.159055 
L 905.014188 505.804724 
L 906.396867 503.159055 
L 907.645738 513.741732 
L 909.028416 508.450394 
L 910.366492 505.804724 
L 913.087247 505.804724 
L 914.469925 508.450394 
L 917.19068 508.450394 
L 918.573358 511.096063 
L 919.911434 511.096063 
L 921.294113 513.741732 
L 922.676791 508.450394 
L 923.970265 516.387402 
L 925.352944 519.033071 
L 926.69102 513.741732 
L 928.073698 516.387402 
L 929.411774 513.741732 
L 934.897886 513.741732 
L 936.235962 511.096063 
L 937.61864 505.804724 
L 939.001319 503.159055 
L 940.25019 503.159055 
L 941.632868 497.867717 
L 942.970944 500.513386 
L 944.353623 495.222047 
L 945.691699 495.222047 
L 947.074378 484.63937 
L 948.457056 487.285039 
L 949.795132 474.056693 
L 951.177811 466.119685 
L 952.515887 463.474016 
L 955.281244 463.474016 
L 956.530115 460.828346 
L 957.912793 458.182677 
L 959.250869 463.474016 
L 960.633548 458.182677 
L 961.971624 460.828346 
L 964.736981 460.828346 
L 966.075057 463.474016 
L 967.457736 455.537008 
L 968.795812 452.891339 
L 970.17849 452.891339 
L 971.561169 455.537008 
L 972.81004 455.537008 
L 974.192718 447.6 
L 975.530794 447.6 
L 976.913473 439.662992 
L 978.251549 442.308661 
L 979.634227 450.245669 
L 981.016906 447.6 
L 982.354982 452.891339 
L 983.73766 452.891339 
L 985.075736 463.474016 
L 987.841093 468.765354 
L 989.134567 463.474016 
L 990.517246 466.119685 
L 991.855322 463.474016 
L 993.238 466.119685 
L 994.576076 471.411024 
L 995.958755 468.765354 
L 998.679509 468.765354 
L 1000.062188 471.411024 
L 1001.400264 471.411024 
L 1002.782942 474.056693 
L 1004.165621 471.411024 
L 1005.414492 476.702362 
L 1006.79717 481.993701 
L 1008.135246 484.63937 
L 1009.517925 484.63937 
L 1010.856001 487.285039 
L 1012.23868 487.285039 
L 1013.621358 484.63937 
L 1014.959434 489.930709 
L 1016.342113 484.63937 
L 1019.062867 495.222047 
L 1020.445546 489.930709 
L 1021.694417 492.576378 
L 1024.415171 492.576378 
L 1025.79785 495.222047 
L 1027.135926 492.576378 
L 1028.518604 492.576378 
L 1029.901283 500.513386 
L 1031.239359 500.513386 
L 1032.622037 497.867717 
L 1033.960114 497.867717 
L 1035.342792 492.576378 
L 1036.725471 492.576378 
L 1037.974342 497.867717 
L 1039.35702 495.222047 
L 1040.695096 495.222047 
L 1042.077775 492.576378 
L 1044.798529 492.576378 
L 1046.181208 489.930709 
L 1048.901962 489.930709 
L 1050.240038 481.993701 
L 1051.622717 479.348031 
L 1053.005395 484.63937 
L 1054.298869 479.348031 
L 1055.681548 479.348031 
L 1057.019624 468.765354 
L 1058.402302 463.474016 
L 1059.740378 452.891339 
L 1061.123057 450.245669 
L 1063.843811 429.080315 
L 1065.22649 421.143307 
L 1069.329923 373.52126 
L 1070.578794 360.292913 
L 1071.961472 349.710236 
L 1073.299548 336.48189 
L 1074.682227 336.48189 
L 1076.020303 339.127559 
L 1080.123736 323.253543 
L 1082.844491 328.544882 
L 1084.227169 325.899213 
L 1085.609848 328.544882 
L 1088.241397 328.544882 
L 1089.579473 341.773228 
L 1090.962152 341.773228 
L 1092.300228 344.418898 
L 1093.682906 344.418898 
L 1096.403661 349.710236 
L 1097.786339 339.127559 
L 1099.124415 352.355906 
L 1100.507094 360.292913 
L 1101.889773 365.584252 
L 1103.138644 365.584252 
L 1104.521322 362.938583 
L 1105.859398 365.584252 
L 1107.242077 362.938583 
L 1112.683586 373.52126 
L 1114.066264 381.458268 
L 1115.40434 386.749606 
L 1116.787019 394.686614 
L 1119.463171 394.686614 
L 1120.845849 397.332283 
L 1122.183926 394.686614 
L 1123.566604 394.686614 
L 1124.90468 397.332283 
L 1126.287359 397.332283 
L 1127.670037 405.269291 
L 1129.008113 407.914961 
L 1131.728868 407.914961 
L 1133.111546 399.977953 
L 1134.494225 410.56063 
L 1135.743096 415.851969 
L 1137.125774 410.56063 
L 1138.46385 407.914961 
L 1139.846529 413.206299 
L 1143.949962 413.206299 
L 1145.288038 418.497638 
L 1146.670717 426.434646 
L 1148.008793 437.017323 
L 1149.391471 437.017323 
L 1150.77415 434.371654 
L 1152.023021 439.662992 
L 1153.405699 447.6 
L 1154.743775 447.6 
L 1157.46453 452.891339 
L 1158.847208 450.245669 
L 1160.229887 460.828346 
L 1161.567963 468.765354 
L 1162.950641 460.828346 
L 1164.288717 466.119685 
L 1165.671396 463.474016 
L 1167.054075 468.765354 
L 1168.302946 468.765354 
L 1169.685624 471.411024 
L 1171.0237 466.119685 
L 1172.406379 476.702362 
L 1175.127133 481.993701 
L 1177.847888 481.993701 
L 1179.230566 479.348031 
L 1180.568642 481.993701 
L 1181.951321 489.930709 
L 1183.333999 487.285039 
L 1184.627473 487.285039 
L 1186.010151 481.993701 
L 1187.348227 489.930709 
L 1190.068982 484.63937 
L 1191.451661 484.63937 
L 1192.834339 481.993701 
L 1198.275848 492.576378 
L 1199.658527 495.222047 
L 1200.907398 497.867717 
L 1203.628152 503.159055 
L 1205.010831 503.159055 
L 1207.731585 497.867717 
L 1209.114264 503.159055 
L 1211.835019 503.159055 
L 1215.938452 511.096063 
L 1217.187323 511.096063 
L 1218.570001 508.450394 
L 1219.908077 511.096063 
L 1221.290756 508.450394 
L 1222.628832 516.387402 
L 1225.394189 516.387402 
L 1226.732265 513.741732 
L 1228.114943 519.033071 
L 1229.453019 511.096063 
L 1230.835698 511.096063 
L 1232.218377 516.387402 
L 1233.467248 513.741732 
L 1237.570681 521.67874 
L 1238.908757 519.033071 
L 1240.291435 519.033071 
L 1241.674114 521.67874 
L 1243.01219 519.033071 
L 1245.732944 524.324409 
L 1248.498301 524.324409 
L 1249.791775 500.513386 
L 1251.174453 259.75748 
L 1252.512529 296.79685 
L 1253.895208 339.127559 
L 1255.233284 360.292913 
L 1256.615963 399.977953 
L 1257.998641 413.206299 
L 1259.336717 431.725984 
L 1260.719396 434.371654 
L 1262.057472 439.662992 
L 1263.44015 447.6 
L 1264.822829 447.6 
L 1266.0717 452.891339 
L 1267.454378 452.891339 
L 1268.792454 458.182677 
L 1270.175133 455.537008 
L 1271.513209 468.765354 
L 1274.278566 484.63937 
L 1275.616642 497.867717 
L 1276.999321 508.450394 
L 1278.337397 513.741732 
L 1279.720075 508.450394 
L 1281.102754 516.387402 
L 1282.351625 519.033071 
L 1283.734303 516.387402 
L 1285.072379 521.67874 
L 1286.455058 521.67874 
L 1287.793134 524.324409 
L 1289.175812 516.387402 
L 1290.558491 521.67874 
L 1291.896567 519.033071 
L 1293.279245 519.033071 
L 1294.617321 526.970079 
L 1296 521.67874 
L 1296 521.67874 
" clip-path="url(#p88e63e71d9)" style="fill: none; stroke: #21918c; stroke-width: 1.5; stroke-linecap: square"/>
   </g>
   <g id="line2d_23">
    <path d="M 180 595.75748 
L 181.382679 584.645669 
L 182.765357 588.614173 
L 184.103433 594.434646 
L 185.486112 594.96378 
L 186.824188 583.058268 
L 188.206866 580.148031 
L 189.589545 582.793701 
L 190.838416 581.206299 
L 192.221094 579.089764 
L 193.55917 579.089764 
L 194.941849 573.533858 
L 196.279925 572.475591 
L 197.662603 565.067717 
L 199.045282 559.247244 
L 200.383358 557.659843 
L 201.766037 554.749606 
L 203.104113 551.310236 
L 204.486791 552.103937 
L 205.86947 550.781102 
L 207.162943 550.781102 
L 208.545622 547.606299 
L 209.883698 544.166929 
L 211.266376 545.225197 
L 212.604452 544.166929 
L 213.987131 544.696063 
L 215.369809 538.875591 
L 216.707885 538.611024 
L 218.090564 540.727559 
L 219.42864 539.140157 
L 220.811318 541.785827 
L 222.193997 537.552756 
L 223.442868 538.611024 
L 224.825547 537.552756 
L 227.546301 537.552756 
L 228.884377 537.817323 
L 231.649734 525.11811 
L 232.98781 524.324409 
L 234.370489 530.144882 
L 235.708565 538.08189 
L 237.091243 544.96063 
L 238.473922 572.740157 
L 239.722793 585.174803 
L 241.105471 583.587402 
L 242.443547 600.255118 
L 243.826226 592.31811 
L 245.164302 598.932283 
L 246.546981 576.444094 
L 247.929659 570.359055 
L 249.267735 569.300787 
L 250.650414 556.866142 
L 251.98849 552.897638 
L 253.371168 551.310236 
L 254.753847 552.633071 
L 256.002718 542.844094 
L 257.385396 538.611024 
L 258.723472 540.198425 
L 260.106151 527.234646 
L 261.444227 525.11811 
L 262.826905 524.324409 
L 264.209584 517.445669 
L 265.54766 511.625197 
L 266.930339 511.096063 
L 268.268415 511.36063 
L 269.651093 511.36063 
L 271.033772 511.889764 
L 272.327245 515.329134 
L 273.709924 513.212598 
L 275.048 515.064567 
L 276.430678 529.086614 
L 277.768754 531.467717 
L 279.151433 538.08189 
L 280.534111 548.135433 
L 281.872187 551.574803 
L 283.254866 552.368504 
L 284.592942 564.538583 
L 285.97562 578.56063 
L 287.358299 549.722835 
L 289.989849 577.502362 
L 291.327925 564.538583 
L 292.710603 571.152756 
L 294.048679 585.968504 
L 295.431358 564.009449 
L 296.814036 567.184252 
L 298.152112 557.130709 
L 299.534791 547.870866 
L 300.872867 555.27874 
L 302.255545 560.040945 
L 303.638224 554.220472 
L 304.887095 541.52126 
L 306.269773 543.373228 
L 307.607849 554.485039 
L 308.990528 546.018898 
L 310.328604 545.225197 
L 311.711283 539.404724 
L 313.093961 540.198425 
L 314.432037 540.198425 
L 315.814716 539.140157 
L 318.53547 539.669291 
L 319.918149 537.552756 
L 321.16702 538.08189 
L 322.549698 540.198425 
L 323.887774 537.552756 
L 325.270453 537.817323 
L 326.608529 537.023622 
L 327.991207 524.588976 
L 329.373886 524.853543 
L 330.711962 524.324409 
L 332.094641 524.853543 
L 333.432717 527.499213 
L 334.815395 524.853543 
L 336.198074 524.853543 
L 337.491547 526.176378 
L 338.874226 525.11811 
L 340.212302 524.324409 
L 341.59498 524.324409 
L 342.933056 526.440945 
L 344.315735 524.324409 
L 345.698413 525.647244 
L 347.036489 528.028346 
L 348.419168 523.795276 
L 349.757244 515.064567 
L 351.139922 513.741732 
L 353.771472 509.773228 
L 355.154151 508.714961 
L 356.492227 508.450394 
L 357.874905 509.773228 
L 359.212981 508.714961 
L 360.59566 507.92126 
L 361.978338 510.566929 
L 363.316414 508.979528 
L 364.699093 508.450394 
L 366.037169 502.629921 
L 367.419847 499.984252 
L 368.802526 495.222047 
L 370.051397 493.634646 
L 371.434075 493.370079 
L 372.772151 487.285039 
L 374.15483 480.141732 
L 375.492906 476.702362 
L 376.875585 470.617323 
L 378.258263 474.056693 
L 379.596339 470.617323 
L 380.979018 464.532283 
L 382.317094 474.056693 
L 383.699772 486.226772 
L 385.082451 484.63937 
L 387.714 509.773228 
L 389.052076 512.683465 
L 390.434755 511.625197 
L 391.772831 516.651969 
L 393.155509 513.741732 
L 394.538188 511.36063 
L 395.876264 514.270866 
L 397.258942 507.656693 
L 398.597019 497.60315 
L 401.362376 492.311811 
L 402.655849 483.316535 
L 404.038528 464.532283 
L 405.376604 455.007874 
L 406.759282 456.330709 
L 408.097358 457.388976 
L 409.480037 457.388976 
L 410.862715 464.00315 
L 412.200791 460.56378 
L 413.58347 462.944882 
L 414.921546 457.653543 
L 416.304224 450.245669 
L 417.686903 442.044094 
L 418.935774 437.28189 
L 420.318452 420.87874 
L 421.656529 387.543307 
L 423.039207 381.458268 
L 424.377283 389.130709 
L 425.759962 373.785827 
L 427.14264 374.844094 
L 429.863395 382.781102 
L 431.201471 379.606299 
L 432.584149 379.341732 
L 433.966828 379.341732 
L 435.215699 411.618898 
L 436.598377 402.623622 
L 437.936453 406.592126 
L 439.319132 415.587402 
L 440.657208 426.170079 
L 442.039886 441.779528 
L 443.422565 450.510236 
L 444.760641 452.891339 
L 446.14332 468.765354 
L 448.864074 507.392126 
L 450.246753 518.503937 
L 451.495624 518.768504 
L 454.216378 494.428346 
L 455.599057 487.020472 
L 456.937133 476.437795 
L 458.319811 469.559055 
L 459.70249 470.088189 
L 461.040566 479.348031 
L 462.423244 487.020472 
L 463.76132 507.392126 
L 465.143999 524.059843 
L 466.526678 529.615748 
L 467.820151 515.593701 
L 469.20283 506.598425 
L 470.540906 503.952756 
L 471.923584 498.925984 
L 473.26166 496.544882 
L 474.644339 489.666142 
L 476.027017 488.07874 
L 477.365093 483.316535 
L 478.747772 483.051969 
L 480.085848 475.908661 
L 484.100076 429.344882 
L 485.482754 428.551181 
L 486.820831 409.502362 
L 488.203509 392.305512 
L 489.541585 341.773228 
L 490.924264 339.127559 
L 492.306942 331.719685 
L 493.645018 352.091339 
L 495.027697 351.562205 
L 496.365773 353.67874 
L 497.748451 361.615748 
L 499.13113 379.606299 
L 500.380001 369.552756 
L 501.762679 338.862992 
L 503.100755 317.697638 
L 504.483434 301.294488 
L 505.82151 275.102362 
L 507.204188 299.177953 
L 508.586867 316.903937 
L 509.924943 350.768504 
L 511.307622 366.907087 
L 512.645698 391.247244 
L 514.028376 428.286614 
L 515.411055 451.833071 
L 516.659926 470.352756 
L 518.042604 471.675591 
L 519.38068 478.818898 
L 520.763359 470.088189 
L 522.101435 455.537008 
L 523.484113 454.47874 
L 524.866792 451.833071 
L 526.204868 462.944882 
L 527.587546 478.818898 
L 528.925622 479.348031 
L 530.308301 488.07874 
L 531.69098 490.724409 
L 532.984453 488.872441 
L 534.367132 489.401575 
L 535.705208 476.966929 
L 537.087886 471.940157 
L 538.425962 476.437795 
L 539.808641 476.966929 
L 541.191319 478.025197 
L 542.529395 484.110236 
L 543.912074 485.962205 
L 545.25015 493.899213 
L 546.632828 494.95748 
L 548.015507 493.105512 
L 549.264378 492.840945 
L 550.647056 491.782677 
L 551.985132 475.379528 
L 553.367811 474.32126 
L 554.705887 473.527559 
L 556.088566 460.828346 
L 557.471244 454.47874 
L 558.80932 445.748031 
L 560.191999 444.689764 
L 561.530075 443.366929 
L 562.912753 439.662992 
L 564.295432 437.546457 
L 565.544303 437.28189 
L 566.926981 434.63622 
L 568.265057 422.201575 
L 569.647736 415.851969 
L 572.36849 404.211024 
L 573.751169 393.36378 
L 575.089245 379.870866 
L 576.471924 358.705512 
L 577.81 351.562205 
L 579.192678 350.503937 
L 580.575357 350.768504 
L 581.824228 349.974803 
L 583.206906 352.091339 
L 584.544982 346.006299 
L 585.927661 344.683465 
L 587.265737 339.92126 
L 590.031094 314.522835 
L 591.36917 252.614173 
L 592.751848 268.223622 
L 594.089924 252.349606 
L 595.472603 251.291339 
L 596.855282 243.089764 
L 598.148755 162.132283 
L 599.531434 151.020472 
L 600.86951 326.428346 
L 602.252188 366.377953 
L 603.590264 378.018898 
L 604.972943 362.674016 
L 606.355621 329.338583 
L 607.693697 278.012598 
L 610.414452 116.891339 
L 611.79713 112.129134 
L 613.179809 195.467717 
L 614.42868 228.009449 
L 615.811358 201.023622 
L 617.149434 126.944882 
L 618.532113 111.6 
L 619.870189 113.187402 
L 621.252868 145.464567 
L 622.635546 197.055118 
L 623.973622 217.955906 
L 625.356301 264.784252 
L 626.694377 289.653543 
L 628.077055 267.165354 
L 629.459734 225.892913 
L 630.708605 228.538583 
L 632.091283 221.659843 
L 633.429359 234.623622 
L 634.812038 242.56063 
L 636.150114 283.833071 
L 637.532792 349.181102 
L 638.915471 344.154331 
L 640.253547 360.028346 
L 641.636226 373.52126 
L 644.35698 387.27874 
L 645.739659 391.776378 
L 646.98853 384.897638 
L 648.371208 384.103937 
L 649.709284 388.601575 
L 651.091963 379.341732 
L 652.430039 369.023622 
L 653.812717 363.99685 
L 655.195396 366.907087 
L 656.533472 366.113386 
L 657.91615 369.817323 
L 659.254226 366.377953 
L 660.636905 363.99685 
L 662.019584 363.20315 
L 663.313057 354.737008 
L 664.695736 344.683465 
L 666.033812 343.889764 
L 667.41649 324.311811 
L 668.754566 319.814173 
L 670.137245 308.966929 
L 671.519923 317.962205 
L 672.857999 352.620472 
L 674.240678 367.43622 
L 675.578754 395.215748 
L 676.961432 396.009449 
L 678.344111 392.040945 
L 679.592982 389.924409 
L 682.313736 406.062992 
L 683.696415 417.703937 
L 685.034491 408.444094 
L 687.799848 407.385827 
L 689.137924 405.533858 
L 690.520603 403.946457 
L 691.858679 398.125984 
L 693.241357 401.565354 
L 694.624036 408.973228 
L 695.872907 419.026772 
L 697.255585 431.990551 
L 698.593661 435.694488 
L 699.97634 433.84252 
L 702.697094 453.685039 
L 704.079773 461.092913 
L 705.417849 462.151181 
L 706.800528 457.124409 
L 708.138604 434.107087 
L 709.521282 446.806299 
L 710.903961 455.537008 
L 712.152832 454.743307 
L 713.53551 448.393701 
L 714.873586 435.694488 
L 716.256265 438.869291 
L 717.594341 442.837795 
L 718.977019 438.869291 
L 720.359698 425.905512 
L 721.697774 424.053543 
L 723.080452 439.927559 
L 724.418528 437.811024 
L 725.801207 436.223622 
L 727.183886 442.837795 
L 728.477359 442.837795 
L 729.860038 435.165354 
L 731.198114 429.344882 
L 732.580792 418.233071 
L 735.301547 405.004724 
L 736.684225 400.24252 
L 738.022301 397.332283 
L 739.40498 396.009449 
L 740.743056 385.162205 
L 742.125734 375.637795 
L 743.508413 369.288189 
L 744.757284 356.324409 
L 746.139962 356.588976 
L 747.478038 357.382677 
L 751.581472 379.077165 
L 752.96415 378.283465 
L 754.302226 383.045669 
L 755.684905 390.71811 
L 757.022981 393.36378 
L 758.405659 399.184252 
L 759.788338 398.919685 
L 761.037209 397.861417 
L 762.419887 398.390551 
L 763.757963 400.507087 
L 765.140642 397.59685 
L 766.478718 401.300787 
L 767.861396 401.829921 
L 769.244075 399.977953 
L 770.582151 402.359055 
L 771.96483 410.296063 
L 773.302906 423.524409 
L 774.685584 434.107087 
L 776.068263 451.568504 
L 777.317134 455.007874 
L 778.699812 460.56378 
L 780.037888 464.00315 
L 781.420567 460.828346 
L 782.758643 462.944882 
L 784.141321 467.177953 
L 785.524 472.733858 
L 786.862076 479.083465 
L 790.965509 510.302362 
L 792.348188 509.508661 
L 793.641661 511.625197 
L 795.02434 518.23937 
L 796.362416 515.858268 
L 797.745094 517.445669 
L 799.08317 530.938583 
L 800.465849 529.615748 
L 801.848527 531.732283 
L 803.186603 534.907087 
L 804.569282 535.171654 
L 805.907358 539.669291 
L 807.290036 537.023622 
L 808.672715 536.759055 
L 809.921586 535.700787 
L 811.304264 538.611024 
L 814.025019 536.494488 
L 815.363095 535.965354 
L 816.745774 536.759055 
L 818.128452 535.171654 
L 819.466528 537.817323 
L 820.849207 537.023622 
L 822.187283 538.611024 
L 823.569961 536.229921 
L 824.95264 530.938583 
L 826.201511 528.55748 
L 827.584189 522.737008 
L 828.922265 510.831496 
L 830.304944 504.48189 
L 831.64302 504.217323 
L 833.025698 498.661417 
L 834.408377 491.782677 
L 835.746453 490.988976 
L 837.129132 476.966929 
L 838.467208 472.733858 
L 839.849886 470.617323 
L 841.232565 460.299213 
L 843.864114 456.859843 
L 845.20219 457.91811 
L 846.584869 458.182677 
L 847.922945 462.151181 
L 849.305623 465.061417 
L 850.688302 463.474016 
L 852.026378 464.532283 
L 853.409056 463.474016 
L 854.747132 468.765354 
L 856.129811 469.823622 
L 857.51249 478.818898 
L 858.805963 476.437795 
L 860.188642 478.818898 
L 861.526718 478.289764 
L 862.909396 477.496063 
L 864.247472 474.056693 
L 865.630151 478.818898 
L 867.012829 476.702362 
L 868.350905 478.289764 
L 869.733584 476.437795 
L 871.07166 476.966929 
L 872.454338 478.025197 
L 873.837017 479.612598 
L 875.085888 474.32126 
L 876.468566 471.146457 
L 877.806642 471.411024 
L 879.189321 469.823622 
L 880.527397 470.88189 
L 881.910076 470.352756 
L 883.292754 470.352756 
L 884.63083 471.411024 
L 886.013509 470.88189 
L 887.351585 471.411024 
L 888.734263 469.823622 
L 890.116942 471.146457 
L 891.365813 471.675591 
L 892.748491 472.733858 
L 894.086567 471.675591 
L 895.469246 469.823622 
L 896.807322 470.352756 
L 898.19 470.088189 
L 899.572679 471.146457 
L 900.910755 482.787402 
L 902.293434 489.137008 
L 903.63151 493.105512 
L 905.014188 494.428346 
L 906.396867 490.988976 
L 907.645738 489.666142 
L 909.028416 491.51811 
L 910.366492 491.51811 
L 911.749171 490.988976 
L 913.087247 484.903937 
L 914.469925 482.787402 
L 915.852604 478.818898 
L 917.19068 479.348031 
L 918.573358 473.527559 
L 919.911434 476.702362 
L 921.294113 472.733858 
L 922.676791 465.325984 
L 923.970265 462.151181 
L 925.352944 457.653543 
L 928.073698 444.16063 
L 929.411774 443.896063 
L 930.794453 444.954331 
L 932.177131 444.425197 
L 933.515207 444.689764 
L 934.897886 444.689764 
L 936.235962 447.6 
L 937.61864 458.711811 
L 939.001319 471.675591 
L 940.25019 476.437795 
L 941.632868 489.930709 
L 942.970944 505.540157 
L 944.353623 511.889764 
L 945.691699 517.181102 
L 947.074378 520.355906 
L 949.795132 551.045669 
L 951.177811 561.628346 
L 952.515887 568.771654 
L 953.898565 571.152756 
L 955.281244 570.888189 
L 956.530115 571.152756 
L 957.912793 570.623622 
L 960.633548 570.623622 
L 961.971624 571.152756 
L 964.736981 570.623622 
L 966.075057 570.623622 
L 967.457736 581.470866 
L 968.795812 584.116535 
L 970.17849 584.116535 
L 971.561169 583.587402 
L 972.81004 583.851969 
L 974.192718 583.587402 
L 975.530794 583.587402 
L 976.913473 584.645669 
L 978.251549 590.201575 
L 979.634227 589.672441 
L 981.016906 590.201575 
L 982.354982 590.201575 
L 983.73766 590.466142 
L 985.075736 590.995276 
L 986.458415 590.466142 
L 987.841093 590.201575 
L 989.134567 590.466142 
L 991.855322 590.466142 
L 993.238 589.672441 
L 994.576076 583.587402 
L 1000.062188 565.861417 
L 1001.400264 559.776378 
L 1002.782942 556.601575 
L 1004.165621 550.781102 
L 1005.414492 547.341732 
L 1006.79717 543.108661 
L 1008.135246 537.552756 
L 1009.517925 536.494488 
L 1012.23868 524.324409 
L 1013.621358 521.149606 
L 1014.959434 516.916535 
L 1016.342113 511.096063 
L 1017.680189 506.862992 
L 1019.062867 503.423622 
L 1020.445546 498.132283 
L 1021.694417 495.486614 
L 1023.077095 490.195276 
L 1024.415171 486.226772 
L 1025.79785 484.903937 
L 1027.135926 478.289764 
L 1028.518604 478.025197 
L 1032.622037 478.025197 
L 1033.960114 478.289764 
L 1036.725471 477.76063 
L 1037.974342 477.76063 
L 1039.35702 478.025197 
L 1042.077775 478.025197 
L 1043.415851 477.76063 
L 1044.798529 484.110236 
L 1046.181208 486.226772 
L 1047.519284 490.988976 
L 1051.622717 512.683465 
L 1053.005395 538.08189 
L 1054.298869 547.870866 
L 1057.019624 564.538583 
L 1058.402302 564.009449 
L 1059.740378 563.744882 
L 1061.123057 564.009449 
L 1062.505735 569.03622 
L 1063.843811 591.259843 
L 1065.22649 606.604724 
L 1066.564566 612.689764 
L 1067.947244 612.954331 
L 1069.329923 611.102362 
L 1070.578794 612.16063 
L 1071.961472 612.954331 
L 1074.682227 611.366929 
L 1076.020303 612.689764 
L 1077.402981 612.689764 
L 1078.78566 612.954331 
L 1080.123736 613.748031 
L 1082.844491 613.748031 
L 1084.227169 614.012598 
L 1085.609848 613.483465 
L 1086.858719 612.689764 
L 1088.241397 611.631496 
L 1089.579473 611.631496 
L 1090.962152 612.16063 
L 1092.300228 612.16063 
L 1093.682906 611.896063 
L 1097.786339 611.896063 
L 1101.889773 612.689764 
L 1103.138644 613.218898 
L 1104.521322 614.277165 
L 1105.859398 614.541732 
L 1107.242077 614.541732 
L 1108.580153 615.070866 
L 1109.962831 614.277165 
L 1111.34551 614.806299 
L 1112.683586 615.070866 
L 1114.066264 614.806299 
L 1115.40434 615.070866 
L 1116.787019 614.806299 
L 1118.169697 614.277165 
L 1119.463171 613.483465 
L 1120.845849 613.218898 
L 1122.183926 612.689764 
L 1124.90468 612.689764 
L 1126.287359 613.483465 
L 1127.670037 613.218898 
L 1129.008113 612.689764 
L 1131.728868 612.689764 
L 1133.111546 613.218898 
L 1134.494225 612.954331 
L 1135.743096 613.218898 
L 1137.125774 612.954331 
L 1138.46385 614.012598 
L 1139.846529 614.541732 
L 1141.184605 614.541732 
L 1142.567283 614.806299 
L 1143.949962 614.806299 
L 1145.288038 614.541732 
L 1146.670717 614.806299 
L 1148.008793 614.541732 
L 1149.391471 615.070866 
L 1150.77415 615.070866 
L 1153.405699 614.541732 
L 1154.743775 614.541732 
L 1156.126454 614.277165 
L 1157.46453 614.541732 
L 1162.950641 614.541732 
L 1164.288717 613.748031 
L 1165.671396 614.012598 
L 1168.302946 614.012598 
L 1169.685624 613.748031 
L 1171.0237 613.748031 
L 1172.406379 613.483465 
L 1173.744455 613.483465 
L 1175.127133 613.218898 
L 1176.509812 613.218898 
L 1177.847888 613.748031 
L 1179.230566 613.748031 
L 1180.568642 610.573228 
L 1181.951321 607.927559 
L 1183.333999 606.869291 
L 1184.627473 607.398425 
L 1186.010151 607.133858 
L 1187.348227 607.133858 
L 1191.451661 606.340157 
L 1194.172415 606.340157 
L 1195.555094 606.075591 
L 1196.89317 602.63622 
L 1198.275848 599.725984 
L 1199.658527 599.461417 
L 1200.907398 596.022047 
L 1202.290076 593.111811 
L 1203.628152 592.847244 
L 1205.010831 589.407874 
L 1206.348907 586.497638 
L 1207.731585 586.233071 
L 1209.114264 586.497638 
L 1210.45234 586.497638 
L 1211.835019 586.233071 
L 1213.173095 582.529134 
L 1214.555773 579.618898 
L 1215.938452 579.354331 
L 1217.187323 576.973228 
L 1218.570001 572.211024 
L 1219.908077 571.946457 
L 1221.290756 568.771654 
L 1222.628832 566.390551 
L 1224.01151 566.390551 
L 1225.394189 565.332283 
L 1226.732265 558.982677 
L 1228.114943 558.71811 
L 1229.453019 556.866142 
L 1230.835698 553.426772 
L 1232.218377 553.426772 
L 1234.849926 552.897638 
L 1236.188002 553.691339 
L 1237.570681 553.955906 
L 1238.908757 553.426772 
L 1240.291435 560.570079 
L 1241.674114 562.951181 
L 1243.01219 568.507087 
L 1244.394868 575.914961 
L 1247.115623 575.914961 
L 1248.498301 575.12126 
L 1249.791775 599.725984 
L 1251.174453 615.6 
L 1252.512529 615.6 
L 1253.895208 614.806299 
L 1256.615963 614.277165 
L 1257.998641 614.541732 
L 1263.44015 614.541732 
L 1266.0717 615.070866 
L 1267.454378 615.070866 
L 1268.792454 615.335433 
L 1271.513209 614.277165 
L 1274.278566 614.806299 
L 1281.102754 614.806299 
L 1283.734303 608.192126 
L 1287.793134 572.475591 
L 1289.175812 555.27874 
L 1290.558491 549.193701 
L 1291.896567 535.43622 
L 1293.279245 516.916535 
L 1294.617321 508.450394 
L 1296 502.365354 
L 1296 502.365354 
" clip-path="url(#p88e63e71d9)" style="fill: none; stroke: #fde725; stroke-width: 1.5; stroke-linecap: square"/>
   </g>
   <g id="patch_3">
    <path d="M 180 640.8 
L 180 86.4 
" style="fill: none; stroke: #000000; stroke-width: 0.8; stroke-linejoin: miter; stroke-linecap: square"/>
   </g>
   <g id="patch_4">
    <path d="M 1296 640.8 
L 1296 86.4 
" style="fill: none; stroke: #000000; stroke-width: 0.8; stroke-linejoin: miter; stroke-linecap: square"/>
   </g>
   <g id="patch_5">
    <path d="M 180 640.8 
L 1296 640.8 
" style="fill: none; stroke: #000000; stroke-width: 0.8; stroke-linejoin: miter; stroke-linecap: square"/>
   </g>
   <g id="patch_6">
    <path d="M 180 86.4 
L 1296 86.4 
" style="fill: none; stroke: #000000; stroke-width: 0.8; stroke-linejoin: miter; stroke-linecap: square"/>
   </g>
   <g id="text_23">
    <!-- Interest rate compared to the Unemployment rate of Men and Women -->
    <g transform="translate(526.982813 80.4)scale(0.12 -0.12)">
     <defs>
      <path id="DejaVuSans-49" d="M 628 4666 
L 1259 4666 
L 1259 0 
L 628 0 
L 628 4666 
z
" transform="scale(0.015625)"/>
      <path id="DejaVuSans-72" d="M 2631 2963 
Q 2534 3019 2420 3045 
Q 2306 3072 2169 3072 
Q 1681 3072 1420 2755 
Q 1159 2438 1159 1844 
L 1159 0 
L 581 0 
L 581 3500 
L 1159 3500 
L 1159 2956 
Q 1341 3275 1631 3429 
Q 1922 3584 2338 3584 
Q 2397 3584 2469 3576 
Q 2541 3569 2628 3553 
L 2631 2963 
z
" transform="scale(0.015625)"/>
      <path id="DejaVuSans-63" d="M 3122 3366 
L 3122 2828 
Q 2878 2963 2633 3030 
Q 2388 3097 2138 3097 
Q 1578 3097 1268 2742 
Q 959 2388 959 1747 
Q 959 1106 1268 751 
Q 1578 397 2138 397 
Q 2388 397 2633 464 
Q 2878 531 3122 666 
L 3122 134 
Q 2881 22 2623 -34 
Q 2366 -91 2075 -91 
Q 1284 -91 818 406 
Q 353 903 353 1747 
Q 353 2603 823 3093 
Q 1294 3584 2113 3584 
Q 2378 3584 2631 3529 
Q 2884 3475 3122 3366 
z
" transform="scale(0.015625)"/>
      <path id="DejaVuSans-6d" d="M 3328 2828 
Q 3544 3216 3844 3400 
Q 4144 3584 4550 3584 
Q 5097 3584 5394 3201 
Q 5691 2819 5691 2113 
L 5691 0 
L 5113 0 
L 5113 2094 
Q 5113 2597 4934 2840 
Q 4756 3084 4391 3084 
Q 3944 3084 3684 2787 
Q 3425 2491 3425 1978 
L 3425 0 
L 2847 0 
L 2847 2094 
Q 2847 2600 2669 2842 
Q 2491 3084 2119 3084 
Q 1678 3084 1418 2786 
Q 1159 2488 1159 1978 
L 1159 0 
L 581 0 
L 581 3500 
L 1159 3500 
L 1159 2956 
Q 1356 3278 1631 3431 
Q 1906 3584 2284 3584 
Q 2666 3584 2933 3390 
Q 3200 3197 3328 2828 
z
" transform="scale(0.015625)"/>
      <path id="DejaVuSans-70" d="M 1159 525 
L 1159 -1331 
L 581 -1331 
L 581 3500 
L 1159 3500 
L 1159 2969 
Q 1341 3281 1617 3432 
Q 1894 3584 2278 3584 
Q 2916 3584 3314 3078 
Q 3713 2572 3713 1747 
Q 3713 922 3314 415 
Q 2916 -91 2278 -91 
Q 1894 -91 1617 61 
Q 1341 213 1159 525 
z
M 3116 1747 
Q 3116 2381 2855 2742 
Q 2594 3103 2138 3103 
Q 1681 3103 1420 2742 
Q 1159 2381 1159 1747 
Q 1159 1113 1420 752 
Q 1681 391 2138 391 
Q 2594 391 2855 752 
Q 3116 1113 3116 1747 
z
" transform="scale(0.015625)"/>
      <path id="DejaVuSans-64" d="M 2906 2969 
L 2906 4863 
L 3481 4863 
L 3481 0 
L 2906 0 
L 2906 525 
Q 2725 213 2448 61 
Q 2172 -91 1784 -91 
Q 1150 -91 751 415 
Q 353 922 353 1747 
Q 353 2572 751 3078 
Q 1150 3584 1784 3584 
Q 2172 3584 2448 3432 
Q 2725 3281 2906 2969 
z
M 947 1747 
Q 947 1113 1208 752 
Q 1469 391 1925 391 
Q 2381 391 2643 752 
Q 2906 1113 2906 1747 
Q 2906 2381 2643 2742 
Q 2381 3103 1925 3103 
Q 1469 3103 1208 2742 
Q 947 2381 947 1747 
z
" transform="scale(0.015625)"/>
      <path id="DejaVuSans-55" d="M 556 4666 
L 1191 4666 
L 1191 1831 
Q 1191 1081 1462 751 
Q 1734 422 2344 422 
Q 2950 422 3222 751 
Q 3494 1081 3494 1831 
L 3494 4666 
L 4128 4666 
L 4128 1753 
Q 4128 841 3676 375 
Q 3225 -91 2344 -91 
Q 1459 -91 1007 375 
Q 556 841 556 1753 
L 556 4666 
z
" transform="scale(0.015625)"/>
      <path id="DejaVuSans-6c" d="M 603 4863 
L 1178 4863 
L 1178 0 
L 603 0 
L 603 4863 
z
" transform="scale(0.015625)"/>
      <path id="DejaVuSans-66" d="M 2375 4863 
L 2375 4384 
L 1825 4384 
Q 1516 4384 1395 4259 
Q 1275 4134 1275 3809 
L 1275 3500 
L 2222 3500 
L 2222 3053 
L 1275 3053 
L 1275 0 
L 697 0 
L 697 3053 
L 147 3053 
L 147 3500 
L 697 3500 
L 697 3744 
Q 697 4328 969 4595 
Q 1241 4863 1831 4863 
L 2375 4863 
z
" transform="scale(0.015625)"/>
      <path id="DejaVuSans-57" d="M 213 4666 
L 850 4666 
L 1831 722 
L 2809 4666 
L 3519 4666 
L 4500 722 
L 5478 4666 
L 6119 4666 
L 4947 0 
L 4153 0 
L 3169 4050 
L 2175 0 
L 1381 0 
L 213 4666 
z
" transform="scale(0.015625)"/>
     </defs>
     <use xlink:href="#DejaVuSans-49"/>
     <use xlink:href="#DejaVuSans-6e" x="29.492188"/>
     <use xlink:href="#DejaVuSans-74" x="92.871094"/>
     <use xlink:href="#DejaVuSans-65" x="132.080078"/>
     <use xlink:href="#DejaVuSans-72" x="193.603516"/>
     <use xlink:href="#DejaVuSans-65" x="232.466797"/>
     <use xlink:href="#DejaVuSans-73" x="293.990234"/>
     <use xlink:href="#DejaVuSans-74" x="346.089844"/>
     <use xlink:href="#DejaVuSans-20" x="385.298828"/>
     <use xlink:href="#DejaVuSans-72" x="417.085938"/>
     <use xlink:href="#DejaVuSans-61" x="458.199219"/>
     <use xlink:href="#DejaVuSans-74" x="519.478516"/>
     <use xlink:href="#DejaVuSans-65" x="558.6875"/>
     <use xlink:href="#DejaVuSans-20" x="620.210938"/>
     <use xlink:href="#DejaVuSans-63" x="651.998047"/>
     <use xlink:href="#DejaVuSans-6f" x="706.978516"/>
     <use xlink:href="#DejaVuSans-6d" x="768.160156"/>
     <use xlink:href="#DejaVuSans-70" x="865.572266"/>
     <use xlink:href="#DejaVuSans-61" x="929.048828"/>
     <use xlink:href="#DejaVuSans-72" x="990.328125"/>
     <use xlink:href="#DejaVuSans-65" x="1029.191406"/>
     <use xlink:href="#DejaVuSans-64" x="1090.714844"/>
     <use xlink:href="#DejaVuSans-20" x="1154.191406"/>
     <use xlink:href="#DejaVuSans-74" x="1185.978516"/>
     <use xlink:href="#DejaVuSans-6f" x="1225.1875"/>
     <use xlink:href="#DejaVuSans-20" x="1286.369141"/>
     <use xlink:href="#DejaVuSans-74" x="1318.15625"/>
     <use xlink:href="#DejaVuSans-68" x="1357.365234"/>
     <use xlink:href="#DejaVuSans-65" x="1420.744141"/>
     <use xlink:href="#DejaVuSans-20" x="1482.267578"/>
     <use xlink:href="#DejaVuSans-55" x="1514.054688"/>
     <use xlink:href="#DejaVuSans-6e" x="1587.248047"/>
     <use xlink:href="#DejaVuSans-65" x="1650.626953"/>
     <use xlink:href="#DejaVuSans-6d" x="1712.150391"/>
     <use xlink:href="#DejaVuSans-70" x="1809.5625"/>
     <use xlink:href="#DejaVuSans-6c" x="1873.039062"/>
     <use xlink:href="#DejaVuSans-6f" x="1900.822266"/>
     <use xlink:href="#DejaVuSans-79" x="1962.003906"/>
     <use xlink:href="#DejaVuSans-6d" x="2021.183594"/>
     <use xlink:href="#DejaVuSans-65" x="2118.595703"/>
     <use xlink:href="#DejaVuSans-6e" x="2180.119141"/>
     <use xlink:href="#DejaVuSans-74" x="2243.498047"/>
     <use xlink:href="#DejaVuSans-20" x="2282.707031"/>
     <use xlink:href="#DejaVuSans-72" x="2314.494141"/>
     <use xlink:href="#DejaVuSans-61" x="2355.607422"/>
     <use xlink:href="#DejaVuSans-74" x="2416.886719"/>
     <use xlink:href="#DejaVuSans-65" x="2456.095703"/>
     <use xlink:href="#DejaVuSans-20" x="2517.619141"/>
     <use xlink:href="#DejaVuSans-6f" x="2549.40625"/>
     <use xlink:href="#DejaVuSans-66" x="2610.587891"/>
     <use xlink:href="#DejaVuSans-20" x="2645.792969"/>
     <use xlink:href="#DejaVuSans-4d" x="2677.580078"/>
     <use xlink:href="#DejaVuSans-65" x="2763.859375"/>
     <use xlink:href="#DejaVuSans-6e" x="2825.382812"/>
     <use xlink:href="#DejaVuSans-20" x="2888.761719"/>
     <use xlink:href="#DejaVuSans-61" x="2920.548828"/>
     <use xlink:href="#DejaVuSans-6e" x="2981.828125"/>
     <use xlink:href="#DejaVuSans-64" x="3045.207031"/>
     <use xlink:href="#DejaVuSans-20" x="3108.683594"/>
     <use xlink:href="#DejaVuSans-57" x="3140.470703"/>
     <use xlink:href="#DejaVuSans-6f" x="3233.472656"/>
     <use xlink:href="#DejaVuSans-6d" x="3294.654297"/>
     <use xlink:href="#DejaVuSans-65" x="3392.066406"/>
     <use xlink:href="#DejaVuSans-6e" x="3453.589844"/>
    </g>
   </g>
   <g id="legend_1">
    <g id="patch_7">
     <path d="M 1087.56875 138.434375 
L 1289 138.434375 
Q 1291 138.434375 1291 136.434375 
L 1291 93.4 
Q 1291 91.4 1289 91.4 
L 1087.56875 91.4 
Q 1085.56875 91.4 1085.56875 93.4 
L 1085.56875 136.434375 
Q 1085.56875 138.434375 1087.56875 138.434375 
z
" style="fill: #ffffff; opacity: 0.8; stroke: #cccccc; stroke-linejoin: miter"/>
    </g>
    <g id="line2d_24">
     <path d="M 1089.56875 99.498437 
L 1099.56875 99.498437 
L 1109.56875 99.498437 
" style="fill: none; stroke: #440154; stroke-width: 1.5; stroke-linecap: square"/>
    </g>
    <g id="text_24">
     <!-- Rate of Unemployment of Women -->
     <g transform="translate(1117.56875 102.998437)scale(0.1 -0.1)">
      <use xlink:href="#DejaVuSans-52"/>
      <use xlink:href="#DejaVuSans-61" x="67.232422"/>
      <use xlink:href="#DejaVuSans-74" x="128.511719"/>
      <use xlink:href="#DejaVuSans-65" x="167.720703"/>
      <use xlink:href="#DejaVuSans-20" x="229.244141"/>
      <use xlink:href="#DejaVuSans-6f" x="261.03125"/>
      <use xlink:href="#DejaVuSans-66" x="322.212891"/>
      <use xlink:href="#DejaVuSans-20" x="357.417969"/>
      <use xlink:href="#DejaVuSans-55" x="389.205078"/>
      <use xlink:href="#DejaVuSans-6e" x="462.398438"/>
      <use xlink:href="#DejaVuSans-65" x="525.777344"/>
      <use xlink:href="#DejaVuSans-6d" x="587.300781"/>
      <use xlink:href="#DejaVuSans-70" x="684.712891"/>
      <use xlink:href="#DejaVuSans-6c" x="748.189453"/>
      <use xlink:href="#DejaVuSans-6f" x="775.972656"/>
      <use xlink:href="#DejaVuSans-79" x="837.154297"/>
      <use xlink:href="#DejaVuSans-6d" x="896.333984"/>
      <use xlink:href="#DejaVuSans-65" x="993.746094"/>
      <use xlink:href="#DejaVuSans-6e" x="1055.269531"/>
      <use xlink:href="#DejaVuSans-74" x="1118.648438"/>
      <use xlink:href="#DejaVuSans-20" x="1157.857422"/>
      <use xlink:href="#DejaVuSans-6f" x="1189.644531"/>
      <use xlink:href="#DejaVuSans-66" x="1250.826172"/>
      <use xlink:href="#DejaVuSans-20" x="1286.03125"/>
      <use xlink:href="#DejaVuSans-57" x="1317.818359"/>
      <use xlink:href="#DejaVuSans-6f" x="1410.820312"/>
      <use xlink:href="#DejaVuSans-6d" x="1472.001953"/>
      <use xlink:href="#DejaVuSans-65" x="1569.414062"/>
      <use xlink:href="#DejaVuSans-6e" x="1630.9375"/>
     </g>
    </g>
    <g id="line2d_25">
     <path d="M 1089.56875 114.176562 
L 1099.56875 114.176562 
L 1109.56875 114.176562 
" style="fill: none; stroke: #21918c; stroke-width: 1.5; stroke-linecap: square"/>
    </g>
    <g id="text_25">
     <!-- Rate of Unemployment of Men -->
     <g transform="translate(1117.56875 117.676562)scale(0.1 -0.1)">
      <use xlink:href="#DejaVuSans-52"/>
      <use xlink:href="#DejaVuSans-61" x="67.232422"/>
      <use xlink:href="#DejaVuSans-74" x="128.511719"/>
      <use xlink:href="#DejaVuSans-65" x="167.720703"/>
      <use xlink:href="#DejaVuSans-20" x="229.244141"/>
      <use xlink:href="#DejaVuSans-6f" x="261.03125"/>
      <use xlink:href="#DejaVuSans-66" x="322.212891"/>
      <use xlink:href="#DejaVuSans-20" x="357.417969"/>
      <use xlink:href="#DejaVuSans-55" x="389.205078"/>
      <use xlink:href="#DejaVuSans-6e" x="462.398438"/>
      <use xlink:href="#DejaVuSans-65" x="525.777344"/>
      <use xlink:href="#DejaVuSans-6d" x="587.300781"/>
      <use xlink:href="#DejaVuSans-70" x="684.712891"/>
      <use xlink:href="#DejaVuSans-6c" x="748.189453"/>
      <use xlink:href="#DejaVuSans-6f" x="775.972656"/>
      <use xlink:href="#DejaVuSans-79" x="837.154297"/>
      <use xlink:href="#DejaVuSans-6d" x="896.333984"/>
      <use xlink:href="#DejaVuSans-65" x="993.746094"/>
      <use xlink:href="#DejaVuSans-6e" x="1055.269531"/>
      <use xlink:href="#DejaVuSans-74" x="1118.648438"/>
      <use xlink:href="#DejaVuSans-20" x="1157.857422"/>
      <use xlink:href="#DejaVuSans-6f" x="1189.644531"/>
      <use xlink:href="#DejaVuSans-66" x="1250.826172"/>
      <use xlink:href="#DejaVuSans-20" x="1286.03125"/>
      <use xlink:href="#DejaVuSans-4d" x="1317.818359"/>
      <use xlink:href="#DejaVuSans-65" x="1404.097656"/>
      <use xlink:href="#DejaVuSans-6e" x="1465.621094"/>
     </g>
    </g>
    <g id="line2d_26">
     <path d="M 1089.56875 128.854687 
L 1099.56875 128.854687 
L 1109.56875 128.854687 
" style="fill: none; stroke: #fde725; stroke-width: 1.5; stroke-linecap: square"/>
    </g>
    <g id="text_26">
     <!-- Interest Rate -->
     <g transform="translate(1117.56875 132.354687)scale(0.1 -0.1)">
      <use xlink:href="#DejaVuSans-49"/>
      <use xlink:href="#DejaVuSans-6e" x="29.492188"/>
      <use xlink:href="#DejaVuSans-74" x="92.871094"/>
      <use xlink:href="#DejaVuSans-65" x="132.080078"/>
      <use xlink:href="#DejaVuSans-72" x="193.603516"/>
      <use xlink:href="#DejaVuSans-65" x="232.466797"/>
      <use xlink:href="#DejaVuSans-73" x="293.990234"/>
      <use xlink:href="#DejaVuSans-74" x="346.089844"/>
      <use xlink:href="#DejaVuSans-20" x="385.298828"/>
      <use xlink:href="#DejaVuSans-52" x="417.085938"/>
      <use xlink:href="#DejaVuSans-61" x="484.318359"/>
      <use xlink:href="#DejaVuSans-74" x="545.597656"/>
      <use xlink:href="#DejaVuSans-65" x="584.806641"/>
     </g>
    </g>
   </g>
  </g>
 </g>
 <defs>
  <clipPath id="p88e63e71d9">
   <rect x="180" y="86.4" width="1116" height="554.4"/>
  </clipPath>
 </defs>
</svg>
